<?xml version="1.0" encoding="UTF-8"?>
<svg version="1.1" xmlns="http://www.w3.org/2000/svg" width="227" height="234">
<path d="M0 0 C74.91 0 149.82 0 227 0 C227 77.22 227 154.44 227 234 C152.09 234 77.18 234 0 234 C0 156.78 0 79.56 0 0 Z " fill="#FBFCFC" transform="translate(0,0)"/>
<path d="M0 0 C3.34930964 0.85988451 5.79513139 2.04877329 8.76831055 3.80419922 C9.82606689 4.42206299 10.88382324 5.03992676 11.97363281 5.67651367 C13.08794678 6.33997803 14.20226074 7.00344238 15.3503418 7.68701172 C16.50730969 8.36779859 17.66478518 9.04772352 18.82275391 9.72680664 C21.15482145 11.09537314 23.48423926 12.468306 25.81225586 13.84375 C28.88243386 15.64728942 31.96605964 17.42298485 35.0612793 19.18310547 C36.37962769 19.93454834 36.37962769 19.93454834 37.72460938 20.70117188 C39.36068274 21.63237442 40.99847809 22.56055965 42.63818359 23.48535156 C48.0509382 26.58820452 48.0509382 26.58820452 49.1628418 28.81201172 C46.14108436 30.72063139 43.0930008 32.58241373 40.0378418 34.43701172 C39.1819043 34.97841797 38.3259668 35.51982422 37.4440918 36.07763672 C36.60620117 36.58037109 35.76831055 37.08310547 34.9050293 37.60107422 C34.1404541 38.0723877 33.37587891 38.54370117 32.58813477 39.02929688 C30.1628418 39.81201172 30.1628418 39.81201172 24.1628418 37.81201172 C18.5528418 34.51201172 12.9428418 31.21201172 7.1628418 27.81201172 C7.1628418 41.34201172 7.1628418 54.87201172 7.1628418 68.81201172 C9.1428418 69.47201172 11.1228418 70.13201172 13.1628418 70.81201172 C15.27758789 71.87768555 15.27758789 71.87768555 17.1862793 73.01904297 C18.25362305 73.65229492 18.25362305 73.65229492 19.3425293 74.29833984 C20.42920898 74.95479492 20.42920898 74.95479492 21.5378418 75.62451172 C22.25456055 76.05054687 22.9712793 76.47658203 23.7097168 76.91552734 C29.57435668 80.41419789 29.57435668 80.41419789 32.34350586 82.28613281 C33.03927734 82.75229004 33.73504883 83.21844727 34.4519043 83.69873047 C35.0701709 84.12758545 35.6884375 84.55644043 36.32543945 84.99829102 C38.76303768 86.07781731 39.69295404 85.76454651 42.1628418 84.81201172 C43.88932841 83.93719818 45.58920531 83.00901871 47.26831055 82.04638672 C48.74460938 81.20527344 48.74460938 81.20527344 50.25073242 80.34716797 C51.27360352 79.75806641 52.29647461 79.16896484 53.3503418 78.56201172 C55.36450548 77.41069144 57.37882634 76.25964608 59.39331055 75.10888672 C60.36187988 74.55394531 61.33044922 73.99900391 62.32836914 73.42724609 C66.25521085 71.18952131 70.20486496 68.99409293 74.1628418 66.81201172 C71.84219422 65.4397633 69.52142404 64.0677233 67.20043945 62.69604492 C65.20868496 61.51841558 63.21747815 60.33985948 61.22680664 59.16040039 C56.47125862 56.34522914 51.71038532 53.54238331 46.91674805 50.79248047 C46.13098389 50.33921387 45.34521973 49.88594727 44.53564453 49.41894531 C43.05818066 48.56812382 41.5772984 47.72320604 40.09277344 46.88476562 C38.41624243 45.91584661 36.78353146 44.87169342 35.1628418 43.81201172 C35.1628418 43.15201172 35.1628418 42.49201172 35.1628418 41.81201172 C38.04527603 40.10080406 40.94558045 38.422493 43.8503418 36.74951172 C44.66696289 36.26417969 45.48358398 35.77884766 46.32495117 35.27880859 C47.12094727 34.82441406 47.91694336 34.37001953 48.73706055 33.90185547 C49.46497803 33.47767334 50.19289551 33.05349121 50.94287109 32.61645508 C53.81389037 31.57609343 55.26492205 31.90588903 58.1628418 32.81201172 C60.61572266 33.96508789 60.61572266 33.96508789 63.19018555 35.41748047 C64.15037598 35.95679199 65.11056641 36.49610352 66.09985352 37.05175781 C71.32214374 40.0529305 76.53180135 43.07382799 81.7253418 46.12451172 C83.85133423 47.3711337 85.97762081 48.61725423 88.10424805 49.86279297 C89.49172241 50.67744019 89.49172241 50.67744019 90.90722656 51.50854492 C92.30381619 52.3156011 93.72012152 53.09065158 95.1628418 53.81201172 C95.3497909 68.32838803 95.49029666 82.84457751 95.57733917 97.36191082 C95.61857715 104.1027674 95.67478746 110.84287571 95.76635742 117.58325195 C95.85466447 124.08655301 95.9010996 130.58936834 95.92185974 137.09324074 C95.93665642 139.5760911 95.96555139 142.05889827 96.00868225 144.54141808 C96.06665952 148.01626327 96.07475887 151.48788474 96.07104492 154.96313477 C96.09980713 155.9924411 96.12856934 157.02174744 96.15820312 158.08224487 C96.07908158 164.91180326 96.07908158 164.91180326 93.40231609 167.54173374 C91.36758202 168.82960564 89.36742184 169.85085083 87.1628418 170.81201172 C86.3975415 171.26970947 85.63224121 171.72740723 84.84375 172.19897461 C84.22330811 172.55725342 83.60286621 172.91553223 82.96362305 173.28466797 C82.24086182 173.70272705 81.51810059 174.12078613 80.7734375 174.55151367 C80.01506592 174.98810303 79.25669434 175.42469238 78.4753418 175.87451172 C77.65573975 176.34783936 76.8361377 176.82116699 75.99169922 177.30883789 C69.12582374 181.2692449 62.23968486 185.1939275 55.35351562 189.11889648 C48.59905457 192.97550175 41.8770129 196.88575969 35.1628418 200.81201172 C31.16395626 203.14725979 27.16397958 205.48062468 23.1628418 207.81201172 C22.15930664 208.3967627 21.15577148 208.98151367 20.12182617 209.58398438 C17.22208058 211.26985011 14.31820099 212.94834295 11.4128418 214.62451172 C10.09993164 215.38924805 10.09993164 215.38924805 8.76049805 216.16943359 C7.54426758 216.86842773 7.54426758 216.86842773 6.3034668 217.58154297 C5.59738281 217.98993408 4.89129883 218.3983252 4.16381836 218.8190918 C2.11978936 219.8333751 0.42301596 220.4909253 -1.8371582 220.81201172 C-4.23249121 219.72796998 -6.34671378 218.59876722 -8.5871582 217.24951172 C-9.27036133 216.85183594 -9.95356445 216.45416016 -10.6574707 216.04443359 C-12.19645168 215.14669469 -13.7320586 214.24315564 -15.26489258 213.33496094 C-19.07379152 211.07984404 -22.90043923 208.85537939 -26.72485352 206.62670898 C-28.81369056 205.4087669 -30.90156985 204.18918083 -32.98852539 202.96801758 C-38.57772253 199.69913873 -44.18122309 196.4639353 -49.8371582 193.31201172 C-56.56991983 189.55601796 -63.23959092 185.69532413 -69.8996582 181.81201172 C-71.33535156 180.97573242 -71.33535156 180.97573242 -72.80004883 180.12255859 C-74.69996482 179.01245196 -76.58542114 177.87715944 -78.45422363 176.71543884 C-80.95424027 175.30879045 -83.02161227 174.33493299 -85.66772461 173.38148499 C-90.08286756 171.60542666 -93.898974 169.6555091 -96.8371582 165.81201172 C-99.61968362 157.82523306 -98.57514183 148.74498494 -98.30200195 140.43310547 C-98.2740039 137.93496582 -98.25266194 135.43674347 -98.23768616 132.93849182 C-98.18639924 127.05061747 -98.06840239 121.16708867 -97.91744381 115.28098971 C-97.73270672 107.91643361 -97.65264127 100.55134151 -97.56958008 93.18505859 C-97.40899554 80.05856973 -97.15610868 66.93555903 -96.8371582 53.81201172 C-96.08208984 53.3942749 -95.32702148 52.97653809 -94.54907227 52.54614258 C-91.68567629 50.96112649 -88.82297216 49.37487383 -85.96069336 47.7878418 C-84.7334195 47.10767556 -83.50588981 46.42797067 -82.27807617 45.7487793 C-81.08536669 45.0889306 -79.8930244 44.42841774 -78.7010498 43.76724243 C-77.50910577 43.10618973 -76.31631207 42.44666677 -75.12268066 41.78866577 C-72.18397495 40.15936454 -69.3059125 38.4842267 -66.44458008 36.71875 C-65.39334961 36.07019043 -64.34211914 35.42163086 -63.2590332 34.75341797 C-62.331875 34.16375244 -61.4047168 33.57408691 -60.44946289 32.96655273 C-57.33332266 31.58933524 -56.02561661 31.73634353 -52.8371582 32.81201172 C-50.55924537 34.09161408 -48.39329389 35.38779983 -46.2121582 36.81201172 C-41.73632949 39.7188483 -41.73632949 39.7188483 -36.8371582 41.81201172 C-37.97000824 45.21056183 -38.2849088 45.35618536 -41.2746582 46.94091797 C-41.99717773 47.33158447 -42.71969727 47.72225098 -43.46411133 48.12475586 C-44.2472168 48.53717529 -45.03032227 48.94959473 -45.8371582 49.37451172 C-47.47363609 50.25796543 -49.10902535 51.14343819 -50.7434082 52.03076172 C-52.00411133 52.71332031 -52.00411133 52.71332031 -53.2902832 53.40966797 C-57.35523221 55.64788376 -61.3472874 58.00574202 -65.3371582 60.37451172 C-72.67485143 64.73085833 -72.67485143 64.73085833 -74.8371582 65.81201172 C-75.1671582 95.18201172 -75.4971582 124.55201172 -75.8371582 154.81201172 C-74.1871582 155.47201172 -72.5371582 156.13201172 -70.8371582 156.81201172 C-68.54286794 158.03183312 -66.28076909 159.27544765 -64.0246582 160.56201172 C-63.34089111 160.94905273 -62.65712402 161.33609375 -61.95263672 161.73486328 C-54.66918853 165.87491174 -47.44550012 170.11805755 -40.21728516 174.35351562 C-31.97008145 179.17679939 -23.66593979 183.89325497 -15.32324219 188.54931641 C-14.42806885 189.05108398 -13.53289551 189.55285156 -12.6105957 190.06982422 C-11.77625 190.53549805 -10.9419043 191.00117188 -10.08227539 191.48095703 C-8.10530107 192.65303881 -6.32676494 193.91502156 -4.5012207 195.30419922 C-3.62208008 195.80177734 -2.74293945 196.29935547 -1.8371582 196.81201172 C1.95549115 195.64067593 5.31765497 193.70342671 8.76831055 191.76513672 C9.83500977 191.16701172 10.90170898 190.56888672 12.00073242 189.95263672 C13.10610352 189.32873047 14.21147461 188.70482422 15.3503418 188.06201172 C16.43637695 187.45357422 17.52241211 186.84513672 18.64135742 186.21826172 C24.41888366 182.97035507 30.14407182 179.65412363 35.81494141 176.22363281 C39.62988555 173.92998541 43.49141035 171.71806115 47.3503418 169.49951172 C54.16404275 165.57663606 60.93189895 161.58958526 67.61865234 157.45336914 C71.94624163 154.81201172 71.94624163 154.81201172 74.1628418 154.81201172 C74.1628418 154.15201172 74.1628418 153.49201172 74.1628418 152.81201172 C73.12450195 152.4324231 73.12450195 152.4324231 72.06518555 152.04516602 C68.7616783 150.64156448 65.80683378 148.92264537 62.7253418 147.08154297 C61.48875634 146.35366015 60.25176473 145.62646697 59.0144043 144.89990234 C57.08150782 143.76089165 55.15159573 142.61775755 53.22827148 141.46264648 C51.35984407 140.34306536 49.48136354 139.24229596 47.6003418 138.14404297 C46.48530273 137.48122314 45.37026367 136.81840332 44.22143555 136.13549805 C40.7801588 134.64642068 39.63058061 134.54135529 36.1628418 135.81201172 C33.52097577 137.09088868 33.52097577 137.09088868 30.84643555 138.72607422 C29.83387695 139.32291016 28.82131836 139.91974609 27.77807617 140.53466797 C26.72942383 141.16244141 25.68077148 141.79021484 24.6003418 142.43701172 C21.50251723 144.27029844 18.4047353 146.10354775 15.30297852 147.93017578 C13.14478867 149.22354596 11.00649297 150.55051731 8.88598633 151.90478516 C7.30793213 152.89140137 7.30793213 152.89140137 5.69799805 153.89794922 C4.75448486 154.50429199 3.81097168 155.11063477 2.83886719 155.73535156 C0.1628418 156.81201172 0.1628418 156.81201172 -2.4777832 156.10302734 C-3.25637695 155.67699219 -4.0349707 155.25095703 -4.8371582 154.81201172 C-5.92125977 154.23708984 -7.00536133 153.66216797 -8.12231445 153.06982422 C-10.04910959 151.99608493 -11.95927996 150.90171173 -13.85736084 149.77792358 C-17.8275208 147.4405802 -21.78073613 145.35807791 -26.00585938 143.51708984 C-39.16053654 137.39221841 -39.16053654 137.39221841 -42.00222778 131.32415771 C-43.54661617 125.3764623 -43.51697751 119.4799374 -43.22485352 113.37548828 C-43.08657411 110.17348645 -43.14215446 107.01528296 -43.2199707 103.81201172 C-43.17720927 89.6776289 -43.17720927 89.6776289 -39.27728271 84.90179443 C-35.55425377 81.71284953 -31.42916742 79.64389872 -26.93734741 77.74679565 C-23.44091135 76.19054908 -20.2292336 74.16906309 -16.9621582 72.18701172 C-11.10593291 68.81201172 -11.10593291 68.81201172 -8.8371582 68.81201172 C-8.8371582 55.28201172 -8.8371582 41.75201172 -8.8371582 27.81201172 C-15.20415162 31.79014145 -15.20415162 31.79014145 -21.55078125 35.80053711 C-22.35040283 36.29030029 -23.15002441 36.78006348 -23.97387695 37.28466797 C-25.19143677 38.04662476 -25.19143677 38.04662476 -26.43359375 38.82397461 C-29.40343165 40.04479066 -30.81260662 39.78211023 -33.8371582 38.81201172 C-36.1185921 37.55528965 -38.28033303 36.28173914 -40.4621582 34.87451172 C-41.03450195 34.51421875 -41.6068457 34.15392578 -42.1965332 33.78271484 C-44.76695358 32.15976337 -47.30778401 30.49826118 -49.8371582 28.81201172 C-49.8371582 28.15201172 -49.8371582 27.49201172 -49.8371582 26.81201172 C-49.25039307 26.48104492 -48.66362793 26.15007813 -48.05908203 25.80908203 C-37.05678196 19.60139656 -26.06021756 13.38377161 -15.0871582 7.12451172 C-14.20133057 6.62016602 -13.31550293 6.11582031 -12.40283203 5.59619141 C-11.17149536 4.89284668 -11.17149536 4.89284668 -9.9152832 4.17529297 C-8.83875488 3.5610144 -8.83875488 3.5610144 -7.74047852 2.93432617 C-2.48495725 -0.16465167 -2.48495725 -0.16465167 0 0 Z " fill="#3093D5" transform="translate(114.837158203125,7.18798828125)"/>
<path d="M0 0 C3.34930964 0.85988451 5.79513139 2.04877329 8.76831055 3.80419922 C9.82606689 4.42206299 10.88382324 5.03992676 11.97363281 5.67651367 C13.08794678 6.33997803 14.20226074 7.00344238 15.3503418 7.68701172 C16.50730969 8.36779859 17.66478518 9.04772352 18.82275391 9.72680664 C21.15482145 11.09537314 23.48423926 12.468306 25.81225586 13.84375 C28.88243386 15.64728942 31.96605964 17.42298485 35.0612793 19.18310547 C35.94017822 19.68406738 36.81907715 20.1850293 37.72460938 20.70117188 C39.36068274 21.63237442 40.99847809 22.56055965 42.63818359 23.48535156 C48.0509382 26.58820452 48.0509382 26.58820452 49.1628418 28.81201172 C46.14108436 30.72063139 43.0930008 32.58241373 40.0378418 34.43701172 C39.1819043 34.97841797 38.3259668 35.51982422 37.4440918 36.07763672 C31.05351157 39.91198486 31.05351157 39.91198486 27.1003418 39.46826172 C25.6462793 38.64841797 25.6462793 38.64841797 24.1628418 37.81201172 C23.48624512 37.44124512 22.80964844 37.07047852 22.11254883 36.68847656 C19.80651825 35.40035595 17.5479445 34.05426673 15.2878418 32.68701172 C11.2659668 30.27388672 11.2659668 30.27388672 7.1628418 27.81201172 C7.1628418 40.68201172 7.1628418 53.55201172 7.1628418 66.81201172 C4.1928418 65.82201172 4.1928418 65.82201172 1.1628418 64.81201172 C-1.13425477 64.77275717 -1.13425477 64.77275717 -3.2121582 65.18701172 C-5.0065332 65.49638672 -5.0065332 65.49638672 -6.8371582 65.81201172 C-6.8371582 66.47201172 -6.8371582 67.13201172 -6.8371582 67.81201172 C-7.4971582 67.81201172 -8.1571582 67.81201172 -8.8371582 67.81201172 C-8.8371582 54.61201172 -8.8371582 41.41201172 -8.8371582 27.81201172 C-15.20415162 31.79014145 -15.20415162 31.79014145 -21.55078125 35.80053711 C-22.35040283 36.29030029 -23.15002441 36.78006348 -23.97387695 37.28466797 C-25.19143677 38.04662476 -25.19143677 38.04662476 -26.43359375 38.82397461 C-29.40343165 40.04479066 -30.81260662 39.78211023 -33.8371582 38.81201172 C-36.1185921 37.55528965 -38.28033303 36.28173914 -40.4621582 34.87451172 C-41.03450195 34.51421875 -41.6068457 34.15392578 -42.1965332 33.78271484 C-44.76695358 32.15976337 -47.30778401 30.49826118 -49.8371582 28.81201172 C-49.8371582 28.15201172 -49.8371582 27.49201172 -49.8371582 26.81201172 C-49.25039307 26.48104492 -48.66362793 26.15007813 -48.05908203 25.80908203 C-37.05678196 19.60139656 -26.06021756 13.38377161 -15.0871582 7.12451172 C-13.75841675 6.36799316 -13.75841675 6.36799316 -12.40283203 5.59619141 C-11.17149536 4.89284668 -11.17149536 4.89284668 -9.9152832 4.17529297 C-9.19759766 3.76577393 -8.47991211 3.35625488 -7.74047852 2.93432617 C-2.48495725 -0.16465167 -2.48495725 -0.16465167 0 0 Z " fill="#1875AA" transform="translate(114.837158203125,7.18798828125)"/>
<path d="M0 0 C2.27791283 1.27960237 4.44386431 2.57578811 6.625 4 C11.10082871 6.90683659 11.10082871 6.90683659 16 9 C14.78836152 12.63491543 13.89228938 12.95246215 10.625 14.75 C9.83351562 15.19859375 9.04203125 15.6471875 8.2265625 16.109375 C6 17 6 17 3 16 C6.465 14.02 6.465 14.02 10 12 C10 11.67 10 11.34 10 11 C8.02 11 6.04 11 4 11 C3.505 8.525 3.505 8.525 3 6 C2.34 6 1.68 6 1 6 C0.34 5.01 -0.32 4.02 -1 3 C-5.4562906 2.57959523 -9.0756768 2.7575296 -13 5 C-14.34410262 7.01735205 -14.34410262 7.01735205 -15 9 C-16.32 9 -17.64 9 -19 9 C-19.33 9.99 -19.66 10.98 -20 12 C-23.81857204 14.9200845 -27.27132978 15.53640488 -32 16 C-32.33 16.99 -32.66 17.98 -33 19 C-34.98 19.33 -36.96 19.66 -39 20 C-39 20.66 -39 21.32 -39 22 C-39.99 22.66 -40.98 23.32 -42 24 C-42.46096208 25.96423753 -42.46096208 25.96423753 -42.39872742 28.26467896 C-42.41126556 29.15932861 -42.42380371 30.05397827 -42.4367218 30.97573853 C-42.43528671 31.95972626 -42.43385162 32.94371399 -42.43237305 33.95751953 C-42.4425647 34.99169006 -42.45275635 36.0258606 -42.46325684 37.09136963 C-42.49353756 40.52190461 -42.50267587 43.95216109 -42.51171875 47.3828125 C-42.52855424 49.7565098 -42.54670292 52.13019812 -42.56611633 54.50387573 C-42.61374506 60.76085607 -42.64347113 67.01780004 -42.66955566 73.27490234 C-42.69929634 79.6559976 -42.74584886 86.03696733 -42.79101562 92.41796875 C-42.87719515 104.9452444 -42.94504571 117.47255047 -43 130 C-42.34 130.33 -41.68 130.66 -41 131 C-39.66666667 131.66666667 -38.33333333 132.33333333 -37 133 C-37 133.66 -37 134.32 -37 135 C-34.66785852 136.20628008 -32.50357861 137.1654738 -30 138 C-30 138.66 -30 139.32 -30 140 C-28.68 140 -27.36 140 -26 140 C-24.4921875 141.37109375 -24.4921875 141.37109375 -23 143 C-21.138122 144.12945408 -21.138122 144.12945408 -19.125 145.0625 C-18.42503906 145.4028125 -17.72507812 145.743125 -17.00390625 146.09375 C-15.38837859 146.824359 -13.72983747 147.45942049 -12.0625 148.0625 C-11.381875 148.371875 -10.70125 148.68125 -10 149 C-9.67 149.99 -9.34 150.98 -9 152 C-8.01 152.33 -7.02 152.66 -6 153 C-6.66 153.33 -7.32 153.66 -8 154 C-10.74358453 152.66495217 -13.35665819 151.26432124 -16 149.75 C-16.69867188 149.36070312 -17.39734375 148.97140625 -18.1171875 148.5703125 C-19.68085896 147.68838015 -21.22470584 146.77071045 -22.75100708 145.82557678 C-25.31954647 144.38234007 -27.71498204 143.27680014 -30.42501831 142.17088318 C-36.28874436 139.54497063 -42.49132274 136.75497221 -45.01053619 130.48485947 C-46.57461931 122.87964374 -46.06319871 115.13615183 -45.7578125 107.42578125 C-45.72420345 104.9305289 -45.69859843 102.43515706 -45.68063354 99.93974304 C-45.61217876 93.39835666 -45.43565869 86.86426468 -45.23596191 80.32574463 C-45.04135436 73.64373544 -44.96948459 66.95944375 -44.87890625 60.27539062 C-44.68635455 47.18049648 -44.38302196 34.09063752 -44 21 C-43.24493164 20.58226318 -42.48986328 20.16452637 -41.71191406 19.73413086 C-38.84851809 18.14911477 -35.98581395 16.56286212 -33.12353516 14.97583008 C-31.89626129 14.29566384 -30.6687316 13.61595895 -29.44091797 12.93676758 C-28.24820848 12.27691888 -27.05586619 11.61640603 -25.8638916 10.95523071 C-24.67194757 10.29417801 -23.47915387 9.63465505 -22.28552246 8.97665405 C-19.34681675 7.34735282 -16.4687543 5.67221498 -13.60742188 3.90673828 C-12.55619141 3.25817871 -11.50496094 2.60961914 -10.421875 1.94140625 C-9.4947168 1.35174072 -8.56755859 0.7620752 -7.61230469 0.15454102 C-4.49616446 -1.22267647 -3.18845841 -1.07566819 0 0 Z " fill="#488CBB" transform="translate(62,40)"/>
<path d="M0 0 C-2.72048546 2.32041407 -4.88772758 3.9568183 -8.25 5.25 C-9.61125 6.11625 -9.61125 6.11625 -11 7 C-12.49247164 14.22670476 -12.11293106 21.65258222 -12.0625 29 C-12.05798828 30.25167969 -12.05347656 31.50335938 -12.04882812 32.79296875 C-12.03711415 35.86202941 -12.02071073 38.93098907 -12 42 C-12.66 42 -13.32 42 -14 42 C-13.525625 42.433125 -13.05125 42.86625 -12.5625 43.3125 C-11 45 -11 45 -10 48 C-10.66 48.66 -11.32 49.32 -12 50 C-12.6425235 52.06874034 -12.6425235 52.06874034 -13 54 C-12.01 54.33 -11.02 54.66 -10 55 C-10.33 55.99 -10.66 56.98 -11 58 C-13.4387207 57.14111328 -13.4387207 57.14111328 -16 55 C-16.90461053 51.6171277 -16.91629146 48.23002776 -16.98046875 44.7421875 C-17.00659744 43.72456329 -17.03272614 42.70693909 -17.05964661 41.65847778 C-17.1025152 39.50171806 -17.13099265 37.34463183 -17.14624023 35.1875 C-17.18715065 31.90304748 -17.32912165 28.63281704 -17.47460938 25.3515625 C-17.80981017 10.48733772 -17.80981017 10.48733772 -14.59674072 6.07141113 C-11.19212668 2.90634851 -4.62120629 -2.31060314 0 0 Z " fill="#3B8FC7" transform="translate(90,86)"/>
<path d="M0 0 C0.66 0 1.32 0 2 0 C2.18695258 14.38599016 2.32745651 28.77179178 2.41449738 43.15874767 C2.45627086 49.83914161 2.51294038 56.51856194 2.60351562 63.19848633 C2.69036055 69.64354283 2.73825809 76.08781464 2.75901794 82.53341103 C2.77381416 84.99393383 2.80270827 87.45441306 2.84584045 89.91460228 C2.9038215 93.35832285 2.91191696 96.79879077 2.90820312 100.24291992 C2.95134644 101.77285332 2.95134644 101.77285332 2.99536133 103.33369446 C2.91626625 110.10045254 2.91626625 110.10045254 0.24951649 112.71854305 C-1.78813503 114.00870558 -3.79462628 115.03115538 -6 116 C-6.85956299 116.51006592 -7.71912598 117.02013184 -8.60473633 117.5456543 C-9.33974365 117.96758057 -10.07475098 118.38950684 -10.83203125 118.82421875 C-11.64994141 119.29537109 -12.46785156 119.76652344 -13.31054688 120.25195312 C-14.13619141 120.72568359 -14.96183594 121.19941406 -15.8125 121.6875 C-17.48620237 122.64882562 -19.15940133 123.61102837 -20.83203125 124.57421875 C-21.56139893 124.99276123 -22.2907666 125.41130371 -23.04223633 125.8425293 C-24.72880307 126.83966272 -26.36977958 127.91318639 -28 129 C-28.99 128.67 -29.98 128.34 -31 128 C-24.25 124 -24.25 124 -22 124 C-22 123.01 -22 122.02 -22 121 C-21.45730469 120.82984375 -20.91460937 120.6596875 -20.35546875 120.484375 C-15.79633407 119.09047538 -15.79633407 119.09047538 -12.5 115.875 C-10.61676421 113.52095526 -9.73515804 113.60704374 -6.8125 113.25 C-5.554375 113.1675 -4.29625 113.085 -3 113 C-3 112.34 -3 111.68 -3 111 C-2.51244075 110.55575526 -2.0248815 110.11151052 -1.52254772 109.65380383 C0.45109804 107.5100136 0.37079995 106.41958675 0.36076355 103.53913879 C0.36694954 102.16985985 0.36694954 102.16985985 0.3732605 100.7729187 C0.36247467 99.77382477 0.35168884 98.77473083 0.34057617 97.74536133 C0.34101425 96.69153763 0.34145233 95.63771393 0.34190369 94.55195618 C0.33981035 91.06179403 0.31645309 87.57210969 0.29296875 84.08203125 C0.28737475 81.66493492 0.28310373 79.2478352 0.28010559 76.83073425 C0.26864147 70.46349729 0.23916059 64.09646506 0.20599365 57.72930908 C0.17532665 51.2342811 0.16160745 44.73922011 0.14648438 38.24414062 C0.11429258 25.49600632 0.06365238 12.74801404 0 0 Z " fill="#2376A6" transform="translate(208,62)"/>
<path d="M0 0 C0.33 0 0.66 0 1 0 C1 29.37 1 58.74 1 89 C2.65 89.66 4.3 90.32 6 91 C8.39738667 92.28330698 10.76478313 93.58943496 13.125 94.9375 C13.80498047 95.32284912 14.48496094 95.70819824 15.18554688 96.10522461 C23.82308084 101.01300287 32.41299103 106.00451034 41 111 C40.34 111.66 39.68 112.32 39 113 C38.01 112.67 37.02 112.34 36 112 C35.67 111.34 35.34 110.68 35 110 C32.97536745 109.34786708 32.97536745 109.34786708 31 109 C31 108.34 31 107.68 31 107 C30.30132812 106.79503906 29.60265625 106.59007812 28.8828125 106.37890625 C27.97273438 106.10949219 27.06265625 105.84007812 26.125 105.5625 C25.22007813 105.29566406 24.31515625 105.02882813 23.3828125 104.75390625 C21 104 21 104 19 103 C19 102.34 19 101.68 19 101 C18.34 101 17.68 101 17 101 C16 100 15 99 14 98 C11.55125723 96.38898502 9.22253514 95.08901406 6.5 94 C5.675 93.67 4.85 93.34 4 93 C2.69987724 92.492696 2.69987724 92.492696 1.37348938 91.97514343 C-1 90 -1 90 -1.56330872 86.2224884 C-1.56005357 84.61396626 -1.52871119 83.00536103 -1.47583008 81.39770508 C-1.46680664 80.51944565 -1.4577832 79.64118622 -1.44848633 78.73631287 C-1.41268178 75.82982011 -1.34123752 72.92534181 -1.26953125 70.01953125 C-1.23777265 68.00603009 -1.2082346 65.99249277 -1.18083191 63.97892761 C-1.1026883 58.67652449 -0.99432908 53.3751498 -0.87976074 48.07342529 C-0.76819439 42.66448193 -0.68508407 37.25511058 -0.59960938 31.84570312 C-0.42765617 21.22985404 -0.22379279 10.61487388 0 0 Z " fill="#70A8CC" transform="translate(38,73)"/>
<path d="M0 0 C7.51953125 -0.390625 7.51953125 -0.390625 10 0 C12.35964862 2.40068599 12.94726038 3.63835686 13.4375 7 C13 10 13 10 11.5625 12.375 C7.67632781 14.83940188 4.54866791 14.2675687 0 14 C0 9.38 0 4.76 0 0 Z " fill="#DCF7FB" transform="translate(192,112)"/>
<path d="M0 0 C3.62387102 1.36859176 6.93833684 2.99181604 10.30859375 4.8984375 C11.30310547 5.46046875 12.29761719 6.0225 13.32226562 6.6015625 C14.35029297 7.18679687 15.37832031 7.77203125 16.4375 8.375 C17.46166016 8.9525 18.48582031 9.53 19.54101562 10.125 C27.89625548 14.86233988 27.89625548 14.86233988 31.41015625 17.5390625 C32.26480469 18.02117187 33.11945313 18.50328125 34 19 C37.77093025 17.83596126 41.05389999 15.91055023 44.44921875 13.92578125 C45.46177734 13.34119141 46.47433594 12.75660156 47.51757812 12.15429688 C49.64471406 10.91838241 51.76969261 9.67874796 53.89257812 8.43554688 C55.40561523 7.56446289 55.40561523 7.56446289 56.94921875 6.67578125 C57.87049561 6.13864502 58.79177246 5.60150879 59.7409668 5.0480957 C60.48644775 4.70222412 61.23192871 4.35635254 62 4 C62.66 4.33 63.32 4.66 64 5 C63.01 5.33 62.02 5.66 61 6 C61 6.66 61 7.32 61 8 C59.35 8.33 57.7 8.66 56 9 C56 9.66 56 10.32 56 11 C55.30132812 11.33773437 54.60265625 11.67546875 53.8828125 12.0234375 C52.97273438 12.46945313 52.06265625 12.91546875 51.125 13.375 C50.22007812 13.81585938 49.31515625 14.25671875 48.3828125 14.7109375 C45.90465528 15.90502699 45.90465528 15.90502699 44 18 C38.40764584 21.01987125 35.21975873 21.20030432 29 20 C28.67 19.01 28.34 18.02 28 17 C25.67793475 16.29508733 23.34406932 15.62787571 21 15 C20.67 14.34 20.34 13.68 20 13 C18.9275 13.0825 17.855 13.165 16.75 13.25 C13 13 13 13 10.625 11.1875 C9 9 9 9 8 6 C6.13977928 4.76722873 6.13977928 4.76722873 3.9375 3.8125 C3.20402344 3.46832031 2.47054687 3.12414062 1.71484375 2.76953125 C1.14894531 2.51558594 0.58304687 2.26164063 0 2 C0 1.34 0 0.68 0 0 Z " fill="#448DBB" transform="translate(79,185)"/>
<path d="M0 0 C1.32 0.33 2.64 0.66 4 1 C-19.1503268 15 -19.1503268 15 -22 15 C-22 43.71 -22 72.42 -22 102 C-22.33 102 -22.66 102 -23 102 C-23.06943818 90.57807624 -23.12277981 79.15620249 -23.15543652 67.73411083 C-23.17110823 62.43065638 -23.19237401 57.12734609 -23.22631836 51.82397461 C-23.25885805 46.70818472 -23.27684167 41.5925337 -23.28463173 36.47664833 C-23.29018494 34.52255377 -23.30102868 32.568467 -23.31719017 30.61443138 C-23.33889283 27.88235279 -23.34196994 25.15085176 -23.34057617 22.41870117 C-23.351362 21.60662201 -23.36214783 20.79454285 -23.3732605 19.95785522 C-23.34304064 14.50178775 -23.34304064 14.50178775 -21.63887024 12.00898743 C-19.50366697 10.69442744 -17.4520996 10.44012044 -15 10 C-14.34 9.34 -13.68 8.68 -13 8 C-11.00892752 6.98234073 -9.00781177 5.98422146 -7 5 C-6.0925 4.443125 -5.185 3.88625 -4.25 3.3125 C-2 2 -2 2 0 2 C0 1.34 0 0.68 0 0 Z " fill="#237BB8" transform="translate(60,58)"/>
<path d="M0 0 C4.53767495 0.41908853 7.70532693 1.68946382 11.60546875 3.9921875 C12.6632251 4.61005127 13.72098145 5.22791504 14.81079102 5.86450195 C15.92510498 6.52796631 17.03941895 7.19143066 18.1875 7.875 C19.34446789 8.55578687 20.50194338 9.2357118 21.65991211 9.91479492 C23.99197965 11.28336142 26.32139746 12.65629428 28.64941406 14.03173828 C31.71959206 15.8352777 34.80321784 17.61097313 37.8984375 19.37109375 C39.21678589 20.12253662 39.21678589 20.12253662 40.56176758 20.88916016 C42.19784094 21.82036271 43.83563629 22.74854793 45.4753418 23.67333984 C50.8880964 26.7761928 50.8880964 26.7761928 52 29 C50.54735962 29.8638129 49.0876837 30.71580454 47.625 31.5625 C46.81289062 32.03816406 46.00078125 32.51382813 45.1640625 33.00390625 C44.09285156 33.49697266 44.09285156 33.49697266 43 34 C42.01 33.505 42.01 33.505 41 33 C42.2375 32.38125 42.2375 32.38125 43.5 31.75 C44.325 31.1725 45.15 30.595 46 30 C46 28.68 46 27.36 46 26 C44.35 25.67 42.7 25.34 41 25 C41 24.34 41 23.68 41 23 C40.21625 22.79375 39.4325 22.5875 38.625 22.375 C35.38301248 21.14528059 32.91357225 19.77278645 30 17.9375 C26.31491412 15.64962946 23.42349276 14.23281541 19 14 C19 12.68 19 11.36 19 10 C18.195625 9.731875 17.39125 9.46375 16.5625 9.1875 C14.7990625 8.5996875 14.7990625 8.5996875 13 8 C12.21882813 7.77054688 11.43765625 7.54109375 10.6328125 7.3046875 C9.42238281 6.93730469 9.42238281 6.93730469 8.1875 6.5625 C7.41792969 6.33691406 6.64835937 6.11132812 5.85546875 5.87890625 C5.24316406 5.58886719 4.63085938 5.29882812 4 5 C3.67 4.01 3.34 3.02 3 2 C0.98491642 1.26676204 0.98491642 1.26676204 -1 1 C-0.67 0.67 -0.34 0.34 0 0 Z M16 13 C16.99 13.33 17.98 13.66 19 14 C19 14.66 19 15.32 19 16 C18.01 15.67 17.02 15.34 16 15 C16 14.34 16 13.68 16 13 Z " fill="#327397" transform="translate(112,7)"/>
<path d="M0 0 C0.33 1.32 0.66 2.64 1 4 C0.34 4 -0.32 4 -1 4 C-1 3.01 -1 2.02 -1 1 C-2.32 1 -3.64 1 -5 1 C-4.67 2.98 -4.34 4.96 -4 7 C-3.01 7.33 -2.02 7.66 -1 8 C-1 7.01 -1 6.02 -1 5 C-0.34 5 0.32 5 1 5 C1.66 3.02 2.32 1.04 3 -1 C5.875 -1.125 5.875 -1.125 9 -1 C11 1 11 1 11.1953125 2.9453125 C11.13020833 4.96354167 11.06510417 6.98177083 11 9 C10.01 9.495 10.01 9.495 9 10 C9 8.68 9 7.36 9 6 C7.68 6 6.36 6 5 6 C4.67 7.32 4.34 8.64 4 10 C3.34 10 2.68 10 2 10 C1.67 9.34 1.34 8.68 1 8 C0.34 8.66 -0.32 9.32 -1 10 C-4.29714793 9.67028521 -5.6226839 9.3773161 -8 7 C-7.75 3.4375 -7.75 3.4375 -7 0 C-4.3333581 -1.33332095 -2.83319697 -0.67102033 0 0 Z " fill="#95C6DB" transform="translate(94,115)"/>
<path d="M0 0 C2.64 0 5.28 0 8 0 C8 0.33 8 0.66 8 1 C6.02 1 4.04 1 2 1 C2 1.66 2 2.32 2 3 C2.62648437 2.98839844 3.25296875 2.97679687 3.8984375 2.96484375 C4.71570313 2.95582031 5.53296875 2.94679687 6.375 2.9375 C7.18710938 2.92589844 7.99921875 2.91429687 8.8359375 2.90234375 C11 3 11 3 13 4 C13 4.66 13 5.32 13 6 C13.66 6.33 14.32 6.66 15 7 C14.44054687 6.835 13.88109375 6.67 13.3046875 6.5 C6.76325297 5.1538527 3.09273256 6.58930623 -2.375 10 C-2.96941895 10.39316406 -3.56383789 10.78632812 -4.17626953 11.19140625 C-8.56059276 14.04550496 -8.56059276 14.04550496 -11.4140625 13.75 C-12.19910156 13.37875 -12.19910156 13.37875 -13 13 C-13 12.34 -13 11.68 -13 11 C-13.66 10.67 -14.32 10.34 -15 10 C-14.00097656 9.44570313 -13.00195312 8.89140625 -11.97265625 8.3203125 C-10.66911089 7.58882662 -9.36573416 6.85704018 -8.0625 6.125 C-7.40314453 5.76019531 -6.74378906 5.39539062 -6.06445312 5.01953125 C-2.42063631 3.14582102 -2.42063631 3.14582102 0 0 Z " fill="#E5F4F7" transform="translate(163,34)"/>
<path d="M0 0 C2.23235697 1.24456167 4.46079662 2.4953939 6.6875 3.75 C7.31333984 4.09804688 7.93917969 4.44609375 8.58398438 4.8046875 C12.33744549 6.92706342 15.69859272 9.19727565 19 12 C16 12 16 12 14 11 C14 11.66 14 12.32 14 13 C14.66 13.33 15.32 13.66 16 14 C15.34 14.66 14.68 15.32 14 16 C14 15.34 14 14.68 14 14 C13.48566406 13.91621094 12.97132812 13.83242188 12.44140625 13.74609375 C8.99240104 12.69207776 6.02978165 10.87676701 2.9375 9.0625 C2.00067383 8.52206055 2.00067383 8.52206055 1.04492188 7.97070312 C-1.69289209 6.38411509 -4.36635959 4.75576028 -7 3 C-4.66666667 3 -2.33333333 3 0 3 C0 2.01 0 1.02 0 0 Z " fill="#E2F3F6" transform="translate(64,35)"/>
<path d="M0 0 C0 0.66 0 1.32 0 2 C-2.31 2.66 -4.62 3.32 -7 4 C-7 4.66 -7 5.32 -7 6 C-10.25419207 8.51937451 -13.83567595 10.56676315 -17.6875 12 C-20.82313913 13.35595206 -22.63192006 15.57120006 -25 18 C-27.18522773 19.36576733 -28.72441189 19.95730993 -31.26953125 20.3515625 C-35.48360803 21.35233038 -38.86523903 23.64210249 -42.57421875 25.8203125 C-43.77498047 26.40425781 -43.77498047 26.40425781 -45 27 C-45.66 26.67 -46.32 26.34 -47 26 C-39.84559515 21.64114666 -32.60144625 17.44309515 -25.34057617 13.26513672 C-21.38161337 10.98113472 -17.4410932 8.67566931 -13.54296875 6.2890625 C-12.85807373 5.87052002 -12.17317871 5.45197754 -11.4675293 5.02075195 C-10.18545659 4.23343618 -8.90677557 3.44056201 -7.63208008 2.64135742 C-3.32884071 0 -3.32884071 0 0 0 Z " fill="#488FBB" transform="translate(190,162)"/>
<path d="M0 0 C4 1 4 1 6.25 4.0625 C7.11625 5.5165625 7.11625 5.5165625 8 7 C8.33 4.69 8.66 2.38 9 0 C9.99 0.33 10.98 0.66 12 1 C12 4.96 12 8.92 12 13 C10.68 13 9.36 13 8 13 C5.75 10 5.75 10 4 7 C3.67 9.31 3.34 11.62 3 14 C2.01 14 1.02 14 0 14 C0 9.38 0 4.76 0 0 Z " fill="#E0F7FB" transform="translate(178,112)"/>
<path d="M0 0 C16.63868613 8.0620438 16.63868613 8.0620438 22 12 C22 12.66 22 13.32 22 14 C20.04775792 15.28406399 18.03659238 16.47941678 16 17.625 C14.329375 18.57246094 14.329375 18.57246094 12.625 19.5390625 C11.75875 20.02117187 10.8925 20.50328125 10 21 C9.67 20.01 9.34 19.02 9 18 C9.66 17.34 10.32 16.68 11 16 C10.6814823 13.89179203 10.6814823 13.89179203 10 12 C10.99 11.34 11.98 10.68 13 10 C10.36 8.68 7.72 7.36 5 6 C5 5.34 5 4.68 5 4 C2.525 3.01 2.525 3.01 0 2 C0 1.34 0 0.68 0 0 Z " fill="#F0F8F7" transform="translate(167,148)"/>
<path d="M0 0 C0 0.99 0 1.98 0 3 C-1.64821244 4.03013277 -3.31503702 5.03114628 -5 6 C-5 6.66 -5 7.32 -5 8 C-2.03 8.99 0.94 9.98 4 11 C4 11.66 4 12.32 4 13 C5.06734375 13.4021875 5.06734375 13.4021875 6.15625 13.8125 C10.03886232 15.43381064 13.61685709 17.5038523 17.28125 19.5625 C22.05547178 22.28638121 22.05547178 22.28638121 27.3125 22.625 C27.869375 22.41875 28.42625 22.2125 29 22 C29 23.32 29 24.64 29 26 C29.66 26.33 30.32 26.66 31 27 C31 27.66 31 28.32 31 29 C26.50398109 27.65990118 22.77031894 25.86000545 18.75390625 23.4453125 C18.17970444 23.10249237 17.60550262 22.75967224 17.01390076 22.40646362 C15.19344731 21.31807127 13.37788534 20.22182049 11.5625 19.125 C10.34863733 18.39658515 9.13444713 17.66871581 7.91992188 16.94140625 C5.61634329 15.56187801 3.31389787 14.18053517 1.01220703 12.79785156 C-2.30138594 10.82011622 -5.63692706 8.89203809 -9 7 C-9 6.34 -9 5.68 -9 5 C-6.03 3.35 -3.06 1.7 0 0 Z " fill="#4288B6" transform="translate(159,44)"/>
<path d="M0 0 C0.66 0 1.32 0 2 0 C2.08107583 1.93681161 2.13922475 3.8745934 2.1875 5.8125 C2.22230469 6.89144531 2.25710937 7.97039062 2.29296875 9.08203125 C2 12 2 12 0.70703125 13.86328125 C-2.15787682 15.77103468 -4.67744148 15.35598841 -8 15 C-9.70703125 13.83203125 -9.70703125 13.83203125 -11 12 C-11.29296875 9.30078125 -11.29296875 9.30078125 -11.1875 6.3125 C-11.16042969 5.31863281 -11.13335937 4.32476562 -11.10546875 3.30078125 C-11.07066406 2.54152344 -11.03585938 1.78226562 -11 1 C-10.01 1 -9.02 1 -8 1 C-7.67 4.3 -7.34 7.6 -7 11 C-5.35 11 -3.7 11 -2 11 C-1.93941406 10.28972656 -1.87882813 9.57945313 -1.81640625 8.84765625 C-1.73261719 7.92855469 -1.64882812 7.00945312 -1.5625 6.0625 C-1.48128906 5.14597656 -1.40007812 4.22945313 -1.31640625 3.28515625 C-1 1 -1 1 0 0 Z " fill="#D5F4FD" transform="translate(174,111)"/>
<path d="M0 0 C1.43085937 0.83144531 1.43085937 0.83144531 2.890625 1.6796875 C3.77234375 2.19789062 4.6540625 2.71609375 5.5625 3.25 C7.54706347 4.28772975 9.54858644 5.27025827 11.5625 6.25 C10.35086152 9.88491543 9.45478938 10.20246215 6.1875 12 C5.39601563 12.44859375 4.60453125 12.8971875 3.7890625 13.359375 C1.5625 14.25 1.5625 14.25 -1.4375 13.25 C0.8725 11.93 3.1825 10.61 5.5625 9.25 C5.5625 8.92 5.5625 8.59 5.5625 8.25 C3.5825 8.25 1.6025 8.25 -0.4375 8.25 C-0.7675 6.6 -1.0975 4.95 -1.4375 3.25 C-2.0975 3.25 -2.7575 3.25 -3.4375 3.25 C-4.0975 2.26 -4.7575 1.27 -5.4375 0.25 C-8.00032742 -0.47965366 -8.00032742 -0.47965366 -10.4375 -0.75 C-10.4375 -1.08 -10.4375 -1.41 -10.4375 -1.75 C-5.957357 -3.1434622 -3.9693114 -2.36469615 0 0 Z " fill="#3593D5" transform="translate(66.4375,42.75)"/>
<path d="M0 0 C3.55780196 0.60990891 6.6828589 1.5783681 10 3 C10 3.66 10 4.32 10 5 C10.66386719 5.17015625 11.32773438 5.3403125 12.01171875 5.515625 C17.3407499 6.97819121 20.67484048 8.51584372 25 12 C28.20980136 12.33513594 28.20980136 12.33513594 31 12 C31.33 12.99 31.66 13.98 32 15 C31.67 15.66 31.34 16.32 31 17 C33.97 16.67 36.94 16.34 40 16 C38.35 17.32 36.7 18.64 35 20 C30.6010702 18.39578376 26.61447051 16.19272321 22.5625 13.875 C21.86962891 13.4819165 21.17675781 13.08883301 20.46289062 12.68383789 C18.30663571 11.45929503 16.15307703 10.23012044 14 9 C12.6133134 8.20957901 11.22659558 7.41921278 9.83984375 6.62890625 C6.5575442 4.75669206 3.27800127 2.87972885 0 1 C0 0.67 0 0.34 0 0 Z " fill="#448AB9" transform="translate(80,144)"/>
<path d="M0 0 C6.435 2.97 6.435 2.97 13 6 C13 6.66 13 7.32 13 8 C14.31484375 8.12761719 14.31484375 8.12761719 15.65625 8.2578125 C19.48364255 9.10735057 21.43258477 10.46866564 24.5 12.875 C28.19386396 15.75154349 31.7535813 18.01417478 36 20 C36 20.66 36 21.32 36 22 C31.896863 20.50000543 28.30948712 18.50824776 24.5625 16.26953125 C23.32591454 15.54164843 22.08892293 14.81445526 20.8515625 14.08789062 C18.91866602 12.94887993 16.98875393 11.80574583 15.06542969 10.65063477 C13.19700228 9.53105364 11.31852174 8.43028424 9.4375 7.33203125 C7.76494141 6.33780151 7.76494141 6.33780151 6.05859375 5.32348633 C2.67848285 3.86087608 1.41049623 3.75640773 -2 5 C-2.99 5.66 -3.98 6.32 -5 7 C-5.99 6.67 -6.98 6.34 -8 6 C-2.25 2 -2.25 2 0 2 C0 1.34 0 0.68 0 0 Z " fill="#3E87B7" transform="translate(153,138)"/>
<path d="M0 0 C0.33 0 0.66 0 1 0 C1 4.29 1 8.58 1 13 C-0.32 13.33 -1.64 13.66 -3 14 C-3 13.34 -3 12.68 -3 12 C-6.11785113 12.64644661 -6.11785113 12.64644661 -7 15 C-9.25 15.875 -9.25 15.875 -12 16 C-14.75 14.0625 -14.75 14.0625 -17 12 C-17.33 12 -17.66 12 -18 12 C-18 9.69 -18 7.38 -18 5 C-17.01 4.67 -16.02 4.34 -15 4 C-14.67 6.31 -14.34 8.62 -14 11 C-10.71303767 11.79953138 -9.28976808 12.09658936 -6 11 C-6 8.36 -6 5.72 -6 3 C-5.67 3 -5.34 3 -5 3 C-4.67 4.65 -4.34 6.3 -4 8 C-2.68 7.67 -1.36 7.34 0 7 C0 4.69 0 2.38 0 0 Z " fill="#3589C2" transform="translate(149,112)"/>
<path d="M0 0 C3.00845419 0.90953266 5.67849405 1.80540429 8.375 3.4375 C11.78749434 5.46874663 15.25966318 6.66869367 19 8 C19 8.66 19 9.32 19 10 C20.32 10 21.64 10 23 10 C23 10.99 23 11.98 23 13 C25.31 13.66 27.62 14.32 30 15 C30 15.66 30 16.32 30 17 C30.9075 17.2475 31.815 17.495 32.75 17.75 C36.10351489 19.03981342 37.67708236 20.31971042 40 23 C34.11201967 21.38977803 29.17121023 18.42295756 23.9375 15.375 C23.01171143 14.84028076 22.08592285 14.30556152 21.13208008 13.75463867 C5.15776347 4.49273407 5.15776347 4.49273407 0 1 C0 0.67 0 0.34 0 0 Z " fill="#448BBC" transform="translate(56,194)"/>
<path d="M0 0 C3.63 0 7.26 0 11 0 C11 0.66 11 1.32 11 2 C8.36 2 5.72 2 3 2 C3 2.99 3 3.98 3 5 C4.98 5 6.96 5 9 5 C9 5.99 9 6.98 9 8 C7.35 8 5.7 8 4 8 C4 9.98 4 11.96 4 14 C2.68 14.33 1.36 14.66 0 15 C0 10.05 0 5.1 0 0 Z " fill="#CAEAF5" transform="translate(150,112)"/>
<path d="M0 0 C3.29714793 0.32971479 4.6226839 0.6226839 7 3 C7.3125 6 7.3125 6 7 9 C4 11 4 11 1.375 10.6875 C-1 10 -1 10 -2 9 C-2.1875 5.5625 -2.1875 5.5625 -2 2 C-1.34 1.34 -0.68 0.68 0 0 Z " fill="#BEE7F6" transform="translate(136,114)"/>
<path d="M0 0 C4.34885027 0.65891671 8.09420622 1.97199169 12 4 C13.1859451 7.01567496 13.09319898 9.92751258 13.02172852 13.13574219 C12.99158409 14.66687653 12.99158409 14.66687653 12.96083069 16.22894287 C12.92027809 17.87131927 12.92027809 17.87131927 12.87890625 19.546875 C12.85529526 20.6732135 12.83168427 21.799552 12.80735779 22.96002197 C12.73079684 26.55681193 12.64673947 30.15338248 12.5625 33.75 C12.50927177 36.18879135 12.45653142 38.62759341 12.40429688 41.06640625 C12.27519187 47.04440652 12.13993197 53.02224389 12 59 C11.67 59 11.34 59 11 59 C11.01451706 58.04279556 11.01451706 58.04279556 11.02932739 57.06625366 C11.12037839 50.41450145 11.14140592 43.7651211 11.12207031 37.11279297 C11.12401508 34.63159448 11.14371923 32.15034304 11.18164062 29.66943359 C11.2331266 26.09830928 11.22039468 22.53224466 11.1953125 18.9609375 C11.22505157 17.85446869 11.25479065 16.74799988 11.28543091 15.60800171 C11.22664077 12.43244306 11.09193007 9.98653343 10 7 C6.93831984 4.29338885 3.68591468 2.70021944 0 1 C0 0.67 0 0.34 0 0 Z " fill="#F1FEFF" transform="translate(200,55)"/>
<path d="M0 0 C7.02281657 1.81944258 12.79107126 6.05388182 18.83203125 9.91992188 C19.69441406 10.45552734 20.55679688 10.99113281 21.4453125 11.54296875 C22.22406738 12.03821045 23.00282227 12.53345215 23.80517578 13.04370117 C27.30053715 14.56665228 29.33512709 13.25688272 32.75 11.9375 C33.4925 11.628125 34.235 11.31875 35 11 C35 11.66 35 12.32 35 13 C27.9452954 17.07877462 27.9452954 17.07877462 24 16.75 C23.34 16.5025 22.68 16.255 22 16 C21.67 15.01 21.34 14.02 21 13 C18.98491642 12.26676204 18.98491642 12.26676204 17 12 C17 11.34 17 10.68 17 10 C15.68 10 14.36 10 13 10 C13 9.34 13 8.68 13 8 C12.04287109 7.70996094 12.04287109 7.70996094 11.06640625 7.4140625 C10.24011719 7.15367188 9.41382813 6.89328125 8.5625 6.625 C7.73878906 6.36976562 6.91507813 6.11453125 6.06640625 5.8515625 C4 5 4 5 3 3 C2.01 2.67 1.02 2.34 0 2 C0 1.34 0 0.68 0 0 Z " fill="#498EBC" transform="translate(127,79)"/>
<path d="M0 0 C7.77154598 3.72907982 15.20325921 7.93430419 22.625 12.3125 C23.72457031 12.95767578 24.82414062 13.60285156 25.95703125 14.26757812 C28.6397164 15.84219767 31.32064991 17.41971458 34 19 C31 20 31 20 27.92578125 18.7421875 C26.7155977 18.1310599 25.51140193 17.50797341 24.3125 16.875 C23.68617676 16.55313721 23.05985352 16.23127441 22.41455078 15.8996582 C18.37207551 13.79683892 14.44872382 11.56216307 10.6484375 9.04296875 C8.8237296 7.88847347 6.94358802 6.93784487 5 6 C5 5.34 5 4.68 5 4 C3.35 4 1.7 4 0 4 C0 2.68 0 1.36 0 0 Z " fill="#DBF6FD" transform="translate(18,173)"/>
<path d="M0 0 C1.48484412 0.39595843 2.9628831 0.81750706 4.4375 1.25 C5.26121094 1.48203125 6.08492188 1.7140625 6.93359375 1.953125 C9 3 9 3 9.78515625 5.109375 C9.85605469 5.73328125 9.92695312 6.3571875 10 7 C11.65 7 13.3 7 15 7 C15 7.99 15 8.98 15 10 C21.68305072 7.48042941 21.68305072 7.48042941 28 4.1875 C28.66 3.795625 29.32 3.40375 30 3 C30.66 3.33 31.32 3.66 32 4 C29.80488686 5.401264 27.59819045 6.76961427 25.375 8.125 C24.75753906 8.52332031 24.14007813 8.92164063 23.50390625 9.33203125 C20.39668413 11.19636452 18.59528255 12.09819094 14.96875 11.5 C11.57578555 9.78566007 8.32380337 7.92310261 5.125 5.875 C4.53203125 5.50246094 3.9390625 5.12992188 3.328125 4.74609375 C1.8818657 3.83635 0.44041954 2.91896202 -1 2 C-0.67 1.34 -0.34 0.68 0 0 Z " fill="#4085B1" transform="translate(97,216)"/>
<path d="M0 0 C3.84018203 1.53607281 7.21848332 3.13313533 10.8125 5.125 C12.27623047 5.93324219 12.27623047 5.93324219 13.76953125 6.7578125 C14.50558594 7.16773438 15.24164063 7.57765625 16 8 C16 8.33 16 8.66 16 9 C9.1776899 8.57360562 7.47349791 7.04593619 1 3 C1 15.54 1 28.08 1 41 C0.67 41 0.34 41 0 41 C0 27.47 0 13.94 0 0 Z " fill="#C6E9F8" transform="translate(122,35)"/>
<path d="M0 0 C0.33 1.32 0.66 2.64 1 4 C0.29915283 4.40839111 -0.40169434 4.81678223 -1.1237793 5.23754883 C-4.31187828 7.09553651 -7.49969186 8.95401335 -10.6875 10.8125 C-11.79029297 11.45509766 -12.89308594 12.09769531 -14.02929688 12.75976562 C-15.09599609 13.38173828 -16.16269531 14.00371094 -17.26171875 14.64453125 C-18.24100342 15.21534424 -19.22028809 15.78615723 -20.22924805 16.37426758 C-22.07372893 17.45651255 -23.88914103 18.58991634 -25.67114258 19.7722168 C-26.43966553 20.17738525 -27.20818848 20.58255371 -28 21 C-28.99 20.67 -29.98 20.34 -31 20 C-24.25 16 -24.25 16 -22 16 C-22 15.01 -22 14.02 -22 13 C-21.45730469 12.82984375 -20.91460937 12.6596875 -20.35546875 12.484375 C-15.79633407 11.09047538 -15.79633407 11.09047538 -12.5 7.875 C-10.61676421 5.52095526 -9.73515804 5.60704374 -6.8125 5.25 C-4.9253125 5.12625 -4.9253125 5.12625 -3 5 C-3 4.34 -3 3.68 -3 3 C-1.5 1.375 -1.5 1.375 0 0 Z " fill="#3883B5" transform="translate(208,170)"/>
<path d="M0 0 C0 13.53 0 27.06 0 41 C-0.33 41 -0.66 41 -1 41 C-1.33 28.79 -1.66 16.58 -2 4 C-3.32 4.99 -4.64 5.98 -6 7 C-9.25 7.1875 -9.25 7.1875 -12 7 C-3.55172414 0 -3.55172414 0 0 0 Z " fill="#D8F5FD" transform="translate(106,35)"/>
<path d="M0 0 C0.33 0.66 0.66 1.32 1 2 C1.66 2.33 2.32 2.66 3 3 C0.29120665 4.35439668 -2.00933268 4.06501451 -5 4 C-5.2475 4.61875 -5.495 5.2375 -5.75 5.875 C-7.62568972 9.06367253 -10.0337107 9.61857001 -13.375 10.9375 C-19.08542516 12.89716158 -19.08542516 12.89716158 -23 17 C-24.32 16.34 -25.64 15.68 -27 15 C-18 10 -9 5 0 0 Z " fill="#4890BE" transform="translate(189,74)"/>
<path d="M0 0 C3.67230705 3.07999946 4.56802365 5.2482602 5 10 C2.69 10 0.38 10 -2 10 C-2 10.66 -2 11.32 -2 12 C-2.99 12 -3.98 12 -5 12 C-5 11.01 -5 10.02 -5 9 C-5.66 8.67 -6.32 8.34 -7 8 C-6.67 7.01 -6.34 6.02 -6 5 C-4.68 5 -3.36 5 -2 5 C-1.67 5.99 -1.34 6.98 -1 8 C-0.67 5.36 -0.34 2.72 0 0 Z " fill="#4792C5" transform="translate(105,116)"/>
<path d="M0 0 C0.33 0.66 0.66 1.32 1 2 C-2.32307692 5.93846154 -2.32307692 5.93846154 -5.75 6.25 C-6.4925 6.1675 -7.235 6.085 -8 6 C-8.226875 6.61875 -8.45375 7.2375 -8.6875 7.875 C-10.40554645 10.65659901 -11.90995099 11.09559541 -15 12 C-15.99 12 -16.98 12 -18 12 C-18 12.99 -18 13.98 -18 15 C-19.98 15 -21.96 15 -24 15 C-21.64365561 12.40094202 -19.16182838 10.80030327 -16.11328125 9.08203125 C-15.17548828 8.55029297 -14.23769531 8.01855469 -13.27148438 7.47070312 C-12.29501953 6.92349609 -11.31855469 6.37628906 -10.3125 5.8125 C-8.83040039 4.97428711 -8.83040039 4.97428711 -7.31835938 4.11914062 C-4.88134237 2.74169623 -2.44185377 1.36884596 0 0 Z " fill="#307499" transform="translate(95,17)"/>
<path d="M0 0 C2.875 -0.125 2.875 -0.125 6 0 C6.66 0.66 7.32 1.32 8 2 C7.625 4.625 7.625 4.625 7 7 C5.35 7 3.7 7 2 7 C1.67 8.32 1.34 9.64 1 11 C0.67 11 0.34 11 0 11 C0 7.37 0 3.74 0 0 Z " fill="#B6DBE9" transform="translate(116,114)"/>
<path d="M0 0 C0.33 0 0.66 0 1 0 C1 3.63 1 7.26 1 11 C0.67 9.68 0.34 8.36 0 7 C-0.66 7 -1.32 7 -2 7 C-2 7.66 -2 8.32 -2 9 C-3.65 9.33 -5.3 9.66 -7 10 C-7.33 11.32 -7.66 12.64 -8 14 C-8 12.02 -8 10.04 -8 8 C-6.35 8 -4.7 8 -3 8 C-3 7.01 -3 6.02 -3 5 C-4.98 5 -6.96 5 -9 5 C-9 4.01 -9 3.02 -9 2 C-6.03 2 -3.06 2 0 2 C0 1.34 0 0.68 0 0 Z " fill="#428CBF" transform="translate(162,112)"/>
<path d="M0 0 C2 3.75 2 3.75 2 6 C6.29 6 10.58 6 15 6 C14.67 6.99 14.34 7.98 14 9 C13.67 8.67 13.34 8.34 13 8 C9.66432524 7.92738667 6.33967891 8.00391343 3.00390625 8.0625 C0 8 0 8 -2 7 C-2 9.64 -2 12.28 -2 15 C-4.79872437 12.47211993 -6.45773019 10.79588866 -7 7 C-4.69 6.34 -2.38 5.68 0 5 C-0.66 4.67 -1.32 4.34 -2 4 C-1.34 2.68 -0.68 1.36 0 0 Z " fill="#4C9DD4" transform="translate(189,105)"/>
<path d="M0 0 C1.65 0 3.3 0 5 0 C6 1 6 1 6.1328125 2.8125 C6.13023437 3.534375 6.12765625 4.25625 6.125 5 C6.12757813 5.721875 6.13015625 6.44375 6.1328125 7.1875 C6 9 6 9 5 10 C3.35 10 1.7 10 0 10 C0 6.7 0 3.4 0 0 Z " fill="#4792C3" transform="translate(195,114)"/>
<path d="M0 0 C-0.5625 1.8125 -0.5625 1.8125 -2 4 C-3.7634375 4.7425 -3.7634375 4.7425 -5.5625 5.5 C-9.11731604 6.58409448 -9.11731604 6.58409448 -9.9375 9.1875 C-9.958125 9.785625 -9.97875 10.38375 -10 11 C-10.99 11 -11.98 11 -13 11 C-14.02019573 11.9793879 -15.02149805 12.97895449 -16 14 C-16.66 14 -17.32 14 -18 14 C-17.67 12.68 -17.34 11.36 -17 10 C-16.34 10 -15.68 10 -15 10 C-15 9.01 -15 8.02 -15 7 C-12.87767021 5.82823482 -10.75242209 4.66245215 -8.625 3.5 C-7.72007813 2.99919922 -7.72007813 2.99919922 -6.796875 2.48828125 C-2.2265625 0 -2.2265625 0 0 0 Z " fill="#2178AA" transform="translate(111,9)"/>
<path d="M0 0 C0 0.99 0 1.98 0 3 C-1.95890881 4.39300182 -3.9639118 5.72245446 -6 7 C-6.495 7.5775 -6.99 8.155 -7.5 8.75 C-9.84181309 10.7015109 -12.073463 10.19510247 -15 10 C-15 10.99 -15 11.98 -15 13 C-16.98 13 -18.96 13 -21 13 C-16.86092559 9.44055929 -12.44728261 6.86171271 -7.6875 4.25 C-6.94693359 3.83878906 -6.20636719 3.42757812 -5.44335938 3.00390625 C-3.63120373 1.99845215 -1.8159158 0.998647 0 0 Z " fill="#DBF5FB" transform="translate(63,59)"/>
<path d="M0 0 C0.66 0.33 1.32 0.66 2 1 C1.1875 2.9375 1.1875 2.9375 0 5 C-0.99 5.33 -1.98 5.66 -3 6 C-3 6.66 -3 7.32 -3 8 C-5.91708924 9.98362069 -7.12380904 9.9876191 -10.75 9.625 C-11.8225 9.41875 -12.895 9.2125 -14 9 C-9.80022081 5.3421278 -5.12798061 2.20634136 0 0 Z M-9 10 C-7 11 -7 11 -7 11 Z " fill="#4691C2" transform="translate(104,76)"/>
<path d="M0 0 C17.43080506 8.48935462 17.43080506 8.48935462 24 13 C24 13.33 24 13.66 24 14 C22.02 14 20.04 14 18 14 C17.67 13.01 17.34 12.02 17 11 C15.63875 10.87625 15.63875 10.87625 14.25 10.75 C10.48931188 9.88214889 9.62178716 8.70371801 7 6 C5.948125 5.67 4.89625 5.34 3.8125 5 C2.884375 4.67 1.95625 4.34 1 4 C0.32421875 1.9375 0.32421875 1.9375 0 0 Z " fill="#4C8FBB" transform="translate(186,48)"/>
<path d="M0 0 C0 0.99 0 1.98 0 3 C-0.99 3.33 -1.98 3.66 -3 4 C-3.33 4.66 -3.66 5.32 -4 6 C-9.11191172 9.19494483 -14.46143482 11.63888831 -20 14 C-20.33 13.34 -20.66 12.68 -21 12 C-17.8755563 10.18653974 -14.75035134 8.3743955 -11.625 6.5625 C-10.73554688 6.04623047 -9.84609375 5.52996094 -8.9296875 4.99804688 C-8.07890625 4.50498047 -7.228125 4.01191406 -6.3515625 3.50390625 C-5.56604004 3.04830322 -4.78051758 2.5927002 -3.97119141 2.12329102 C-2.66701952 1.38010364 -1.34259205 0.67129603 0 0 Z " fill="#DAF4FB" transform="translate(208,174)"/>
<path d="M0 0 C0.33 1.32 0.66 2.64 1 4 C0.34 4 -0.32 4 -1 4 C-1 3.01 -1 2.02 -1 1 C-2.32 1 -3.64 1 -5 1 C-4.67 2.98 -4.34 4.96 -4 7 C-3.01 7.33 -2.02 7.66 -1 8 C-1 7.01 -1 6.02 -1 5 C-0.34 5 0.32 5 1 5 C0.67 6.32 0.34 7.64 0 9 C-4.4143167 10.31236443 -4.4143167 10.31236443 -6.875 9 C-8.65049945 5.84355654 -7.82068609 3.40900375 -7 0 C-4.3333581 -1.33332095 -2.83319697 -0.67102033 0 0 Z " fill="#BCE8F5" transform="translate(94,115)"/>
<path d="M0 0 C0.9178125 0.52851563 1.835625 1.05703125 2.78125 1.6015625 C10.37880749 6.22367031 10.37880749 6.22367031 18.875 6.4375 C19.90625 5.963125 20.9375 5.48875 22 5 C21.67 5.99 21.34 6.98 21 8 C18.10598557 9.27958489 15.1493704 9.79681481 12 10 C8.9375 8.75 8.9375 8.75 7 7 C7 6.34 7 5.68 7 5 C4.03 4.505 4.03 4.505 1 4 C0.67 2.68 0.34 1.36 0 0 Z " fill="#D1EFF8" transform="translate(99,220)"/>
<path d="M0 0 C3.375 -0.125 3.375 -0.125 7 0 C9 2 9 2 10 4 C11.97888961 4.72693904 13.97954558 5.39816251 16 6 C16 6.66 16 7.32 16 8 C16.99 8 17.98 8 19 8 C19 8.99 19 9.98 19 11 C14.60616294 9.40376856 10.71004193 7.21975667 6.6875 4.875 C6.04232422 4.50246094 5.39714844 4.12992188 4.73242188 3.74609375 C3.15324055 2.83367787 1.57638136 1.91724491 0 1 C0 0.67 0 0.34 0 0 Z " fill="#DEF4F9" transform="translate(93,192)"/>
<path d="M0 0 C5.75 1.875 5.75 1.875 8 3 C8 3.66 8 4.32 8 5 C9.32 5.66 10.64 6.32 12 7 C10.046875 6.93489583 8.09375 6.86979167 6.140625 6.8046875 C3.57815832 6.90751009 3.57815832 6.90751009 0 9 C0 6.03 0 3.06 0 0 Z " fill="#3790CA" transform="translate(114,71)"/>
<path d="M0 0 C1.32 0.33 2.64 0.66 4 1 C1.64639882 2.41761307 -0.70786228 3.8341104 -3.0625 5.25 C-4.04766602 5.84361328 -4.04766602 5.84361328 -5.05273438 6.44921875 C-7.03176304 7.63858573 -9.01577486 8.81932838 -11 10 C-11.650896 10.39541992 -12.30179199 10.79083984 -12.97241211 11.19824219 C-17.72515977 14.02818874 -17.72515977 14.02818874 -20.4375 13.75 C-20.953125 13.5025 -21.46875 13.255 -22 13 C-19.6120592 10.6120592 -18.23091381 10.64618276 -15 10 C-14.34 9.34 -13.68 8.68 -13 8 C-11.00892752 6.98234073 -9.00781177 5.98422146 -7 5 C-6.0925 4.443125 -5.185 3.88625 -4.25 3.3125 C-2 2 -2 2 0 2 C0 1.34 0 0.68 0 0 Z " fill="#3B84B2" transform="translate(60,58)"/>
<path d="M0 0 C1.67542976 0.28604898 3.34385343 0.61781233 5 1 C-3.75 8 -3.75 8 -8 8 C-9 5 -9 5 -8.0625 2.8125 C-7.5365625 1.9153125 -7.5365625 1.9153125 -7 1 C-5.5459375 1.0309375 -5.5459375 1.0309375 -4.0625 1.0625 C-1.12534105 1.35618499 -1.12534105 1.35618499 0 0 Z " fill="#EEF8F5" transform="translate(106,7)"/>
<path d="M0 0 C2.96777019 0.96625076 5.77999491 1.88731447 8.5625 3.3125 C11.10847017 4.32883795 11.10847017 4.32883795 13.6875 2.625 C14.8321875 1.820625 14.8321875 1.820625 16 1 C16.66 1 17.32 1 18 1 C17.67 2.32 17.34 3.64 17 5 C11.36589907 6.91156996 8.13645595 7.23184433 2.56640625 5.1171875 C1 4 1 4 0.27734375 1.8828125 C0.18582031 1.26148438 0.09429687 0.64015625 0 0 Z " fill="#E1F8FD" transform="translate(104,159)"/>
<path d="M0 0 C0 0.66 0 1.32 0 2 C-0.99 2 -1.98 2 -3 2 C-3.33 2.99 -3.66 3.98 -4 5 C-5.32467746 5.6837045 -6.65863633 6.34964186 -8 7 C-8.99 8.485 -8.99 8.485 -10 10 C-12.1640625 10.51171875 -12.1640625 10.51171875 -14.625 10.6875 C-15.44226563 10.75324219 -16.25953125 10.81898438 -17.1015625 10.88671875 C-17.72804687 10.92410156 -18.35453125 10.96148437 -19 11 C-15.44608026 8.03073619 -11.81482005 5.57681464 -7.8125 3.25 C-6.76707031 2.63640625 -5.72164062 2.0228125 -4.64453125 1.390625 C-2 0 -2 0 0 0 Z " fill="#DFF6FD" transform="translate(159,203)"/>
<path d="M0 0 C1.32 0 2.64 0 4 0 C1.90204024 5.04247643 -1.80780716 6.67612208 -6.375 9.3125 C-7.14328125 9.77978516 -7.9115625 10.24707031 -8.703125 10.72851562 C-9.44820312 11.16486328 -10.19328125 11.60121094 -10.9609375 12.05078125 C-11.97873291 12.64886597 -11.97873291 12.64886597 -13.01708984 13.2590332 C-15.4209666 14.1573053 -16.62028059 13.8467652 -19 13 C-18.360625 12.87625 -17.72125 12.7525 -17.0625 12.625 C-16.381875 12.41875 -15.70125 12.2125 -15 12 C-14.67 11.34 -14.34 10.68 -14 10 C-12.22293916 8.89896391 -10.40320915 7.86596696 -8.5625 6.875 C-7.57378906 6.33617187 -6.58507812 5.79734375 -5.56640625 5.2421875 C-3 4 -3 4 -1 4 C-0.67 2.68 -0.34 1.36 0 0 Z " fill="#27698D" transform="translate(101,33)"/>
<path d="M0 0 C-6.93 3.96 -13.86 7.92 -21 12 C-21 11.01 -21 10.02 -21 9 C-20.01 8.67 -19.02 8.34 -18 8 C-18 7.34 -18 6.68 -18 6 C-16.35 6 -14.7 6 -13 6 C-13 5.34 -13 4.68 -13 4 C-11.40233897 3.13372601 -9.79660056 2.28233535 -8.1875 1.4375 C-7.29417969 0.96183594 -6.40085938 0.48617187 -5.48046875 -0.00390625 C-3 -1 -3 -1 0 0 Z " fill="#D8F3F8" transform="translate(165,176)"/>
<path d="M0 0 C3.3 0.66 6.6 1.32 10 2 C7.42355713 4.57644287 5.96726521 5.68769359 2.8125 7.1875 C2.09707031 7.53167969 1.38164062 7.87585938 0.64453125 8.23046875 C0.10183594 8.48441406 -0.44085938 8.73835938 -1 9 C-1 7.02 -1 5.04 -1 3 C-0.34 3 0.32 3 1 3 C0.67 2.01 0.34 1.02 0 0 Z " fill="#E6F5F6" transform="translate(180,71)"/>
<path d="M0 0 C1.2065625 0.0309375 1.2065625 0.0309375 2.4375 0.0625 C-0.49153058 2.39614352 -3.44818203 4.11210836 -6.8125 5.75 C-8.15054688 6.40548828 -8.15054688 6.40548828 -9.515625 7.07421875 C-10.19109375 7.40035156 -10.8665625 7.72648438 -11.5625 8.0625 C-11.8925 6.4125 -12.2225 4.7625 -12.5625 3.0625 C-9.10403783 0.75685855 -7.5958286 0.97481894 -3.5625 1.0625 C-2.5625 0.0625 -2.5625 0.0625 0 0 Z " fill="#E5F7FB" transform="translate(133.5625,191.9375)"/>
<path d="M0 0 C3.125 0.375 3.125 0.375 6 1 C6 1.33 6 1.66 6 2 C4.02 2.33 2.04 2.66 0 3 C-0.33 4.98 -0.66 6.96 -1 9 C-1.99 8.67 -2.98 8.34 -4 8 C-4 8.99 -4 9.98 -4 11 C-5.32 10.67 -6.64 10.34 -8 10 C-8 8.02 -8 6.04 -8 4 C-6.68 4 -5.36 4 -4 4 C-4 4.99 -4 5.98 -4 7 C-3.34 7 -2.68 7 -2 7 C-2.04125 6.21625 -2.0825 5.4325 -2.125 4.625 C-2 2 -2 2 0 0 Z " fill="#327CA9" transform="translate(97,112)"/>
<path d="M0 0 C2.375 -0.125 2.375 -0.125 5 0 C5.66 0.66 6.32 1.32 7 2 C9.05269032 2.76398699 11.12516357 3.3938104 13.22265625 4.0234375 C15 5 15 5 15.74609375 7.1015625 C15.82988281 7.72804687 15.91367187 8.35453125 16 9 C12.10830371 8.31989774 9.12818084 6.49100513 5.75 4.5 C4.67234375 3.8709375 3.5946875 3.241875 2.484375 2.59375 C1.66453125 2.0678125 0.8446875 1.541875 0 1 C0 0.67 0 0.34 0 0 Z " fill="#DDF8FC" transform="translate(48,166)"/>
<path d="M0 0 C2.27467581 1.09677235 4.54454524 2.20198422 6.8125 3.3125 C7.45509766 3.62123047 8.09769531 3.92996094 8.75976562 4.24804688 C11.95607616 5.82136035 14.70577107 7.22816208 17 10 C11.65319006 10.50921999 9.21517628 9.22864566 5 6 C4.05125 5.29875 3.1025 4.5975 2.125 3.875 C1.42375 3.25625 0.7225 2.6375 0 2 C0 1.34 0 0.68 0 0 Z " fill="#DDF6FC" transform="translate(86,148)"/>
<path d="M0 0 C3.3 0.33 6.6 0.66 10 1 C7.30928396 3.01803703 4.70356891 4.89679003 1.875 6.6875 C1.19179687 7.12449219 0.50859375 7.56148437 -0.1953125 8.01171875 C-2 9 -2 9 -4 9 C-2.25 5.125 -2.25 5.125 0 4 C0 3.01 0 2.02 0 1 C0 0.67 0 0.34 0 0 Z " fill="#EFF5F7" transform="translate(85,16)"/>
<path d="M0 0 C2.67331214 0.45828208 4.99618664 0.99837932 7.5 2.0625 C10.17773183 3.06664944 12.16578026 3.16195541 15 3 C15.33 3.99 15.66 4.98 16 6 C15.34 6 14.68 6 14 6 C14 6.66 14 7.32 14 8 C8.76481294 6.56032356 4.36973991 4.18303389 0 1 C0 0.67 0 0.34 0 0 Z " fill="#F2F7F0" transform="translate(132,16)"/>
<path d="M0 0 C4.91441412 1.43652105 9.00238358 3.54159615 13.375 6.125 C14.01566406 6.49753906 14.65632813 6.87007812 15.31640625 7.25390625 C16.88048477 8.16434002 18.44065534 9.08148191 20 10 C20 10.33 20 10.66 20 11 C18.35 11 16.7 11 15 11 C14.67 10.01 14.34 9.02 14 8 C13.27425781 7.88785156 12.54851562 7.77570313 11.80078125 7.66015625 C8.87436007 6.97038613 6.77712191 5.94489186 4.1875 4.4375 C3.39730469 3.98246094 2.60710938 3.52742187 1.79296875 3.05859375 C1.20128906 2.70925781 0.60960937 2.35992187 0 2 C0 1.34 0 0.68 0 0 Z " fill="#E0F7FD" transform="translate(60,198)"/>
<path d="M0 0 C3 1 3 1 4 3 C4.46153846 8.42307692 4.46153846 8.42307692 2.5 10.875 C1.7575 11.431875 1.7575 11.431875 1 12 C-1 10 -1 10 -1.23046875 7.87109375 C-1.20919922 6.66646484 -1.20919922 6.66646484 -1.1875 5.4375 C-1.18105469 4.63183594 -1.17460937 3.82617188 -1.16796875 2.99609375 C-1 1 -1 1 0 0 Z " fill="#CCEBF6" transform="translate(201,113)"/>
<path d="M0 0 C3.7910119 1.44950455 7.3874638 3.15172566 11 5 C9.78836152 8.63491543 8.89228938 8.95246215 5.625 10.75 C4.83351563 11.19859375 4.04203125 11.6471875 3.2265625 12.109375 C1 13 1 13 -2 12 C4.75 8 4.75 8 7 8 C6.27731765 4.7014861 6.27731765 4.7014861 2.9375 3.3125 C1.968125 2.879375 0.99875 2.44625 0 2 C0 1.34 0 0.68 0 0 Z " fill="#4487B3" transform="translate(67,44)"/>
<path d="M0 0 C0.33 0 0.66 0 1 0 C1.66 1.98 2.32 3.96 3 6 C5.35367713 6.6878236 5.35367713 6.6878236 8 7 C8.99 6.34 9.98 5.68 11 5 C11 5.99 11 6.98 11 8 C11.66 8.33 12.32 8.66 13 9 C9.37 9 5.74 9 2 9 C1.67 9.66 1.34 10.32 1 11 C0.34 10.67 -0.32 10.34 -1 10 C-0.67 6.7 -0.34 3.4 0 0 Z " fill="#388CC1" transform="translate(85,117)"/>
<path d="M0 0 C-2.26404542 1.36680153 -4.53501021 2.71844445 -6.8125 4.0625 C-7.45509766 4.45244141 -8.09769531 4.84238281 -8.75976562 5.24414062 C-10.4628915 6.24130759 -12.22945858 7.12812687 -14 8 C-14.99 7.67 -15.98 7.34 -17 7 C-12.56298124 2.99237015 -6.08324024 -2.02774675 0 0 Z " fill="#DDF4F9" transform="translate(81,26)"/>
<path d="M0 0 C-2.28874173 1.33858524 -4.58069656 2.67101014 -6.875 4 C-7.52597656 4.3815625 -8.17695312 4.763125 -8.84765625 5.15625 C-13.7734375 8 -13.7734375 8 -16 8 C-16 7.01 -16 6.02 -16 5 C-15.34 5 -14.68 5 -14 5 C-14 4.34 -14 3.68 -14 3 C-13.44570313 2.79503906 -12.89140625 2.59007812 -12.3203125 2.37890625 C-11.59585938 2.10949219 -10.87140625 1.84007812 -10.125 1.5625 C-9.40570313 1.29566406 -8.68640625 1.02882812 -7.9453125 0.75390625 C-3.38200935 -1.0146028 -3.38200935 -1.0146028 0 0 Z " fill="#DDF5FC" transform="translate(57,40)"/>
<path d="M0 0 C1.89957501 0.90888756 3.79450786 1.82748031 5.6875 2.75 C7.27111328 3.51570312 7.27111328 3.51570312 8.88671875 4.296875 C11.90003083 5.94531172 14.39287648 7.77499662 17 10 C12.43545749 9.45660208 9.0271824 8.20536179 5 6 C5 5.34 5 4.68 5 4 C2.525 3.01 2.525 3.01 0 2 C0 1.34 0 0.68 0 0 Z " fill="#D7F3FB" transform="translate(167,148)"/>
<path d="M0 0 C0.33 0 0.66 0 1 0 C1.47059659 4.09811201 1.72091015 7.92367716 1 12 C-1.33157507 14.50030747 -3.82955897 15.7827771 -7 17 C-7.33 16.34 -7.66 15.68 -8 15 C-7.34 14.67 -6.68 14.34 -6 14 C-4.86649466 11.98330173 -4.86649466 11.98330173 -4 10 C-2.68 10 -1.36 10 0 10 C0 6.7 0 3.4 0 0 Z " fill="#F1FEFE" transform="translate(104,64)"/>
<path d="M0 0 C3.37705625 0.53725895 6.696686 1.11064623 10 2 C10.33 3.32 10.66 4.64 11 6 C12.32 6 13.64 6 15 6 C15.33 6.99 15.66 7.98 16 9 C10.0942118 7.44584521 5.02261107 4.40465533 0 1 C0 0.67 0 0.34 0 0 Z " fill="#D7F4FB" transform="translate(65,176)"/>
<path d="M0 0 C3.875 1.75 3.875 1.75 5 4 C5.66 2.68 6.32 1.36 7 0 C7.66 0 8.32 0 9 0 C8.55123384 1.64846769 8.09069512 3.29373455 7.625 4.9375 C7.36976562 5.85402344 7.11453125 6.77054687 6.8515625 7.71484375 C6 10 6 10 4 11 C3.71125 10.113125 3.4225 9.22625 3.125 8.3125 C2.16851252 5.49617576 1.13201054 2.74916844 0 0 Z " fill="#C5EFFB" transform="translate(105,114)"/>
<path d="M0 0 C2.97 0 5.94 0 9 0 C9 0.66 9 1.32 9 2 C7.68 2 6.36 2 5 2 C5 4.64 5 7.28 5 10 C4.34 10 3.68 10 3 10 C3 7.36 3 4.72 3 2 C2.01 2 1.02 2 0 2 C0 1.34 0 0.68 0 0 Z " fill="#CAEDF8" transform="translate(125,114)"/>
<path d="M0 0 C1.60875 0.2784375 1.60875 0.2784375 3.25 0.5625 C6.40391546 0.9304568 8.09818492 1.04465343 11 0 C11 1.32 11 2.64 11 4 C11.66 4.33 12.32 4.66 13 5 C13 5.66 13 6.32 13 7 C8.1725201 5.58707905 4.2837641 3.57025846 0 1 C0 0.67 0 0.34 0 0 Z " fill="#408EC4" transform="translate(177,66)"/>
<path d="M0 0 C3.375 -0.125 3.375 -0.125 7 0 C7.66 0.66 8.32 1.32 9 2 C9.99 2.66 10.98 3.32 12 4 C12 4.99 12 5.98 12 7 C7.69235185 5.43358249 3.93828536 3.31663844 0 1 C0 0.67 0 0.34 0 0 Z " fill="#E0F3F6" transform="translate(146,24)"/>
<path d="M0 0 C0.66 0 1.32 0 2 0 C2 2.64 2 5.28 2 8 C4.31 8 6.62 8 9 8 C8.67 8.66 8.34 9.32 8 10 C5.36 10 2.72 10 0 10 C0 6.7 0 3.4 0 0 Z " fill="#EFFEFD" transform="translate(193,116)"/>
<path d="M0 0 C0.66 0.33 1.32 0.66 2 1 C2 2.32 2 3.64 2 5 C4.92321965 7.28239171 4.92321965 7.28239171 8 9 C7.01 9.495 7.01 9.495 6 10 C3.6171875 8.85546875 3.6171875 8.85546875 0.875 7.1875 C-0.03507812 6.64480469 -0.94515625 6.10210937 -1.8828125 5.54296875 C-2.58148438 5.03378906 -3.28015625 4.52460937 -4 4 C-4 3.34 -4 2.68 -4 2 C-2.125 0.9375 -2.125 0.9375 0 0 Z " fill="#2A6C94" transform="translate(69,32)"/>
<path d="M0 0 C-0.33 0.99 -0.66 1.98 -1 3 C-6.94 3.495 -6.94 3.495 -13 4 C-8.42244564 -0.57755436 -6.21132993 -0.10018274 0 0 Z " fill="#E5F3F5" transform="translate(172,199)"/>
<path d="M0 0 C0.99 0.33 1.98 0.66 3 1 C0.7136988 2.36402043 -1.57821749 3.71634274 -3.875 5.0625 C-4.85146484 5.64741211 -4.85146484 5.64741211 -5.84765625 6.24414062 C-7.53065725 7.22444533 -9.26296199 8.11898432 -11 9 C-11.66 8.67 -12.32 8.34 -13 8 C-10.54257744 4.31386616 -9.12287634 4.2934514 -5 3 C-4.113125 2.443125 -3.22625 1.88625 -2.3125 1.3125 C-1.1678125 0.6628125 -1.1678125 0.6628125 0 0 Z " fill="#3A82B0" transform="translate(134,150)"/>
<path d="M0 0 C1.485 0.99 1.485 0.99 3 2 C5.05709596 2.24055468 5.05709596 2.24055468 7.1875 2.125 C8.445625 2.08375 9.70375 2.0425 11 2 C11 3.32 11 4.64 11 6 C9.56138706 5.91253716 8.12402492 5.80434652 6.6875 5.6875 C5.88699219 5.62949219 5.08648437 5.57148438 4.26171875 5.51171875 C1.63727666 4.91793306 0.69179328 4.04219706 -1 2 C-0.67 1.34 -0.34 0.68 0 0 Z " fill="#4B93C2" transform="translate(163,123)"/>
<path d="M0 0 C0.66 0 1.32 0 2 0 C2.33 3.3 2.66 6.6 3 10 C3.33 9.01 3.66 8.02 4 7 C5.65 7 7.3 7 9 7 C8.505 7.45375 8.01 7.9075 7.5 8.375 C5.77390663 9.87635519 5.77390663 9.87635519 6 12 C4.35 12.33 2.7 12.66 1 13 C-0.32229189 10.35541621 -0.09677194 8.32238699 -0.0625 5.375 C-0.05347656 4.37210937 -0.04445313 3.36921875 -0.03515625 2.3359375 C-0.02355469 1.56507812 -0.01195313 0.79421875 0 0 Z " fill="#4D97C4" transform="translate(114,114)"/>
<path d="M0 0 C1.79398267 0.95399078 3.58511655 1.91334026 5.375 2.875 C6.37273437 3.40867188 7.37046875 3.94234375 8.3984375 4.4921875 C11 6 11 6 13 8 C12.34 8 11.68 8 11 8 C11 8.66 11 9.32 11 10 C10.34 10 9.68 10 9 10 C9 9.01 9 8.02 9 7 C8.2575 6.731875 7.515 6.46375 6.75 6.1875 C4.10938051 5.04723249 2.14447156 3.90619694 0 2 C0 1.34 0 0.68 0 0 Z " fill="#D8F4FC" transform="translate(161,57)"/>
<path d="M0 0 C0.99 0.33 1.98 0.66 3 1 C2.34 1 1.68 1 1 1 C1.49831724 4.68754757 2.10067643 6.60490662 5 9 C4.67 9.99 4.34 10.98 4 12 C2.35 12 0.7 12 -1 12 C-0.67 11.34 -0.34 10.68 0 10 C-0.66 9.34 -1.32 8.68 -2 8 C-1.34 8 -0.68 8 0 8 C0 5.36 0 2.72 0 0 Z " fill="#4A9DD4" transform="translate(130,116)"/>
<path d="M0 0 C0.33 0.99 0.66 1.98 1 3 C2.98 3 4.96 3 7 3 C7.33 4.65 7.66 6.3 8 8 C7.01 8.495 7.01 8.495 6 9 C6 7.68 6 6.36 6 5 C4.68 5 3.36 5 2 5 C2 5.99 2 6.98 2 8 C1.34 8 0.68 8 0 8 C0 5.36 0 2.72 0 0 Z " fill="#D3F5FD" transform="translate(97,116)"/>
<path d="M0 0 C3.86677565 1.466708 5.00985559 3.47201672 7 7 C7.66 7.33 8.32 7.66 9 8 C9 8.66 9 9.32 9 10 C7.68 10 6.36 10 5 10 C3.515625 8.3203125 3.515625 8.3203125 2.25 6.125 C1.60804688 5.04605469 1.60804688 5.04605469 0.953125 3.9453125 C0 2 0 2 0 0 Z " fill="#D2F2F9" transform="translate(179,112)"/>
<path d="M0 0 C1 3 1 3 0 6 C0.66 6.33 1.32 6.66 2 7 C-1 8 -1 8 -3.1875 7.0625 C-3.785625 6.711875 -4.38375 6.36125 -5 6 C-4.625 3.5625 -4.625 3.5625 -4 1 C-2 0 -2 0 0 0 Z " fill="#EBF4F6" transform="translate(117,0)"/>
<path d="M0 0 C0.99 0.33 1.98 0.66 3 1 C1.5 3.5 1.5 3.5 -1 6 C-3.80138565 6.45442324 -6.13800875 6.23849927 -9 6 C-6.11861791 3.75892504 -3.25320657 1.66831106 0 0 Z " fill="#E1F7FB" transform="translate(92,42)"/>
<path d="M0 0 C4.8274799 1.41292095 8.7162359 3.42974154 13 6 C13 6.33 13 6.66 13 7 C7.59305933 6.56744475 4.24633878 5.41778487 0 2 C0 1.34 0 0.68 0 0 Z " fill="#DDF4F9" transform="translate(125,37)"/>
<path d="M0 0 C2.64 0 5.28 0 8 0 C8.33 0.99 8.66 1.98 9 3 C6.04335481 4.4783226 3.25770263 4.06032783 0 4 C-0.33 3.34 -0.66 2.68 -1 2 C-0.67 1.34 -0.34 0.68 0 0 Z " fill="#CDEBF2" transform="translate(166,122)"/>
<path d="M0 0 C2.0625 0.4375 2.0625 0.4375 4 1 C4 2.65 4 4.3 4 6 C2.35 6 0.7 6 -1 6 C-1.042721 4.33388095 -1.04063832 2.66617115 -1 1 C-0.67 0.67 -0.34 0.34 0 0 Z " fill="#5290BA" transform="translate(137,116)"/>
<path d="M0 0 C0.639375 0.185625 1.27875 0.37125 1.9375 0.5625 C2.9584375 0.7790625 2.9584375 0.7790625 4 1 C4.33 0.67 4.66 0.34 5 0 C5.66 0 6.32 0 7 0 C6.67 0.99 6.34 1.98 6 3 C0.96266834 4.5111995 -3.88171027 3.64599773 -9 3 C-9 2.67 -9 2.34 -9 2 C-6.03 2 -3.06 2 0 2 C0 1.34 0 0.68 0 0 Z " fill="#2A86C8" transform="translate(161,108)"/>
<path d="M0 0 C0 0.99 0 1.98 0 3 C-3.23934303 5.85351557 -6.70120583 7.86470894 -11 8.3125 C-11.99 8.1578125 -11.99 8.1578125 -13 8 C-10.20375042 5.81302498 -7.36692128 4.00847187 -4.25 2.3125 C-3.45078125 1.87550781 -2.6515625 1.43851563 -1.828125 0.98828125 C-1.22484375 0.66214844 -0.6215625 0.33601563 0 0 Z " fill="#D7F1F8" transform="translate(77,51)"/>
<path d="M0 0 C-0.5 1.8125 -0.5 1.8125 -2 4 C-4.56249113 5.34639364 -7.17259135 6.36972349 -10 7 C-10.66 6.67 -11.32 6.34 -12 6 C-10.37829621 4.99466333 -8.75252763 3.99588093 -7.125 3 C-5.76761719 2.1646875 -5.76761719 2.1646875 -4.3828125 1.3125 C-2 0 -2 0 0 0 Z " fill="#2B7199" transform="translate(111,9)"/>
<path d="M0 0 C4.38889325 0.66498383 7.9811485 2.18757677 12 4 C11.67 4.99 11.34 5.98 11 7 C9.35063087 6.21572648 7.70558873 5.42234741 6.0625 4.625 C5.14597656 4.18414062 4.22945312 3.74328125 3.28515625 3.2890625 C1 2 1 2 0 0 Z " fill="#DEF7FD" transform="translate(200,55)"/>
<path d="M0 0 C0 0.99 0 1.98 0 3 C-1.64821244 4.03013277 -3.31503702 5.03114628 -5 6 C-5 6.66 -5 7.32 -5 8 C-4.34 8 -3.68 8 -3 8 C-3.33 8.66 -3.66 9.32 -4 10 C-6.5 8.625 -6.5 8.625 -9 7 C-9 6.34 -9 5.68 -9 5 C-6.03 3.35 -3.06 1.7 0 0 Z " fill="#518FB8" transform="translate(159,44)"/>
<path d="M0 0 C-0.33 1.32 -0.66 2.64 -1 4 C-4 3 -4 3 -6 0 C-8.56282742 -0.72965366 -8.56282742 -0.72965366 -11 -1 C-11 -1.33 -11 -1.66 -11 -2 C-6.38619749 -3.49270081 -4.10342037 -2.38570952 0 0 Z " fill="#3F91CA" transform="translate(67,43)"/>
<path d="M0 0 C3.96 1.98 7.92 3.96 12 6 C11.34 6.66 10.68 7.32 10 8 C7.9375 7.75 7.9375 7.75 6 7 C5.67 6.34 5.34 5.68 5 5 C4.154375 4.505 3.30875 4.01 2.4375 3.5 C1.633125 3.005 0.82875 2.51 0 2 C0 1.34 0 0.68 0 0 Z " fill="#D9F5FD" transform="translate(74,141)"/>
<path d="M0 0 C4 5 4 5 8 10 C6.68 10.33 5.36 10.66 4 11 C3.34 9.68 2.68 8.36 2 7 C1.34 7 0.68 7 0 7 C0 4.69 0 2.38 0 0 Z " fill="#548DB4" transform="translate(181,117)"/>
<path d="M0 0 C0 0.66 0 1.32 0 2 C-2.64 2.33 -5.28 2.66 -8 3 C-8 5.97 -8 8.94 -8 12 C-8.33 12 -8.66 12 -9 12 C-9.06058594 11.37351562 -9.12117187 10.74703125 -9.18359375 10.1015625 C-9.26738281 9.28429687 -9.35117188 8.46703125 -9.4375 7.625 C-9.51871094 6.81289062 -9.59992188 6.00078125 -9.68359375 5.1640625 C-9.89090114 2.95727195 -9.89090114 2.95727195 -11 1 C-7.27569643 0.30710631 -3.78916254 -0.11144596 0 0 Z " fill="#2C89C8" transform="translate(180,109)"/>
<path d="M0 0 C0.33 0.66 0.66 1.32 1 2 C1.66 2.33 2.32 2.66 3 3 C0.29120665 4.35439668 -2.00933268 4.06501451 -5 4 C-5.66 5.32 -6.32 6.64 -7 8 C-7.33 6.68 -7.66 5.36 -8 4 C-5.36 2.68 -2.72 1.36 0 0 Z " fill="#4092C8" transform="translate(189,74)"/>
<path d="M0 0 C2.4375 0.375 2.4375 0.375 5 1 C5.33 1.66 5.66 2.32 6 3 C4.54735962 3.8638129 3.0876837 4.71580454 1.625 5.5625 C0.40683594 6.27599609 0.40683594 6.27599609 -0.8359375 7.00390625 C-1.55007812 7.33261719 -2.26421875 7.66132812 -3 8 C-3.66 7.67 -4.32 7.34 -5 7 C-4.175 6.5875 -3.35 6.175 -2.5 5.75 C-1.675 5.1725 -0.85 4.595 0 4 C0 2.68 0 1.36 0 0 Z " fill="#1F688D" transform="translate(158,33)"/>
<path d="M0 0 C1.4835001 0.42257276 2.96176424 0.86356322 4.4375 1.3125 C5.67306641 1.67794922 5.67306641 1.67794922 6.93359375 2.05078125 C7.95646484 2.52064453 7.95646484 2.52064453 9 3 C9.33 3.99 9.66 4.98 10 6 C6.7 5.01 3.4 4.02 0 3 C0 2.01 0 1.02 0 0 Z " fill="#3D8BC3" transform="translate(97,216)"/>
<path d="M0 0 C0 0.66 0 1.32 0 2 C-1.32 2.33 -2.64 2.66 -4 3 C-4 3.66 -4 4.32 -4 5 C-6.64 5.66 -9.28 6.32 -12 7 C-9.20232475 3.70861735 -4.40323273 0 0 0 Z " fill="#DBF5FC" transform="translate(143,148)"/>
<path d="M0 0 C7.75 -0.125 7.75 -0.125 10 1 C10 1.66 10 2.32 10 3 C10.66 3.33 11.32 3.66 12 4 C8.04 3.67 4.08 3.34 0 3 C0 2.01 0 1.02 0 0 Z " fill="#DBF0F8" transform="translate(166,37)"/>
<path d="M0 0 C5.75 1.75 5.75 1.75 8 4 C5.13822943 5.43088528 3.06624227 4.59991697 0 4 C0 2.68 0 1.36 0 0 Z M-3 3 C-2.01 3.33 -1.02 3.66 0 4 C0 4.66 0 5.32 0 6 C-0.99 5.67 -1.98 5.34 -3 5 C-3 4.34 -3 3.68 -3 3 Z " fill="#25759F" transform="translate(131,17)"/>
<path d="M0 0 C2.475 0.495 2.475 0.495 5 1 C5 3.31 5 5.62 5 8 C2.20127563 5.47211993 0.54226981 3.79588866 0 0 Z " fill="#4E8CB4" transform="translate(182,112)"/>
<path d="M0 0 C-3.63 1.98 -7.26 3.96 -11 6 C-8.25017144 0.50034289 -6.14670303 -1.53667576 0 0 Z " fill="#E6F6FD" transform="translate(95,82)"/>
<path d="M0 0 C2.3125 0.875 2.3125 0.875 5.3125 2.875 C3.3325 3.205 1.3525 3.535 -0.6875 3.875 C-0.6875 3.215 -0.6875 2.555 -0.6875 1.875 C-1.63625 2.390625 -2.585 2.90625 -3.5625 3.4375 C-4.59375 3.911875 -5.625 4.38625 -6.6875 4.875 C-7.3475 4.545 -8.0075 4.215 -8.6875 3.875 C-3.43035714 -0.1595515 -3.43035714 -0.1595515 0 0 Z " fill="#4A8FBE" transform="translate(170.6875,39.125)"/>
<path d="M0 0 C1.29858939 0.56775536 2.58870441 1.15491663 3.875 1.75 C4.59429687 2.07484375 5.31359375 2.3996875 6.0546875 2.734375 C8.3370674 4.21929686 9.00375898 5.50415408 10 8 C9.01 7.67 8.02 7.34 7 7 C7 6.34 7 5.68 7 5 C4.03 4.505 4.03 4.505 1 4 C0.67 2.68 0.34 1.36 0 0 Z " fill="#DCF7FE" transform="translate(99,220)"/>
<path d="M0 0 C0.99 0 1.98 0 3 0 C3 2.64 3 5.28 3 8 C3.99 8.33 4.98 8.66 6 9 C4.35 9 2.7 9 1 9 C0.67 6.03 0.34 3.06 0 0 Z " fill="#3488BC" transform="translate(125,117)"/>
<path d="M0 0 C2.125 0.375 2.125 0.375 4 1 C3.01 1.66 2.02 2.32 1 3 C0.26656572 6.06556598 0.26656572 6.06556598 0 9 C-0.66 9 -1.32 9 -2 9 C-2.125 5.625 -2.125 5.625 -2 2 C-1.34 1.34 -0.68 0.68 0 0 Z " fill="#D0F1FA" transform="translate(136,114)"/>
<path d="M0 0 C-3.19990508 2.74277578 -6.00499382 4.6302836 -10 6 C-10 5.01 -10 4.02 -10 3 C-6.62637846 0.39749195 -4.23092172 -0.36265043 0 0 Z " fill="#DFF7FD" transform="translate(41,48)"/>
<path d="M0 0 C3.77545388 1.09068668 6.47043472 1.9083091 9 5 C6.36 4.67 3.72 4.34 1 4 C0.67 2.68 0.34 1.36 0 0 Z " fill="#D0F0FA" transform="translate(90,215)"/>
<path d="M0 0 C0 0.66 0 1.32 0 2 C-0.99 2 -1.98 2 -3 2 C-3.33 2.99 -3.66 3.98 -4 5 C-6.5625 6.1875 -6.5625 6.1875 -9 7 C-9 6.01 -9 5.02 -9 4 C-2.25 0 -2.25 0 0 0 Z " fill="#D0F2FA" transform="translate(159,203)"/>
<path d="M0 0 C2 1 4 2 6 3 C6 3.66 6 4.32 6 5 C6.66 5.33 7.32 5.66 8 6 C2.25 5.125 2.25 5.125 0 4 C0 2.68 0 1.36 0 0 Z " fill="#3D8AC1" transform="translate(19,170)"/>
<path d="M0 0 C1.98 0 3.96 0 6 0 C6 0.66 6 1.32 6 2 C6.99 2 7.98 2 9 2 C9 2.99 9 3.98 9 5 C5.54074837 3.7508258 2.85306797 2.32472205 0 0 Z " fill="#DEF4FC" transform="translate(39,161)"/>
<path d="M0 0 C1.32 0.33 2.64 0.66 4 1 C3.814375 1.61875 3.62875 2.2375 3.4375 2.875 C2.76313824 5.04160178 2.76313824 5.04160178 4 7 C2.68 6.67 1.36 6.34 0 6 C0 4.02 0 2.04 0 0 Z " fill="#5593B9" transform="translate(89,116)"/>
<path d="M0 0 C1.5 1.1875 1.5 1.1875 3 3 C3.1875 5.6875 3.1875 5.6875 3 8 C2.01 8 1.02 8 0 8 C-0.79953138 4.71303767 -1.09658936 3.28976808 0 0 Z " fill="#3F84B2" transform="translate(105,116)"/>
<path d="M0 0 C1.32 0.33 2.64 0.66 4 1 C4 2.32 4 3.64 4 5 C3.34 5 2.68 5 2 5 C1.67 6.65 1.34 8.3 1 10 C-0.60725635 6.78548731 -0.05748185 3.56387464 0 0 Z " fill="#428EB7" transform="translate(204,114)"/>
<path d="M0 0 C2.97 1.65 5.94 3.3 9 5 C5 6 5 6 2.8125 5.3125 C1 4 1 4 0 0 Z " fill="#4C8EB8" transform="translate(176,42)"/>
<path d="M0 0 C1.65 0 3.3 0 5 0 C2.45543849 2.96865509 -0.48994665 4.3619751 -4 6 C-3.34 4.68 -2.68 3.36 -2 2 C-1.34 2 -0.68 2 0 2 C0 1.34 0 0.68 0 0 Z " fill="#E3F9FC" transform="translate(147,182)"/>
<path d="M0 0 C3.43927579 1.2419607 6.25207819 2.55740284 9 5 C9 5.66 9 6.32 9 7 C4.58110387 5.64978174 2.65654657 3.73884332 0 0 Z " fill="#3D8DBE" transform="translate(96,151)"/>
<path d="M0 0 C0.33 0.66 0.66 1.32 1 2 C2.98 2 4.96 2 7 2 C5.8125 3.5625 5.8125 3.5625 4 5 C1.375 4.8125 1.375 4.8125 -1 4 C-1.33 3.34 -1.66 2.68 -2 2 C-1.34 2 -0.68 2 0 2 C0 1.34 0 0.68 0 0 Z " fill="#CBEFF9" transform="translate(152,89)"/>
<path d="M0 0 C0.66 0.33 1.32 0.66 2 1 C-0.3125 3.5 -0.3125 3.5 -3 6 C-3.99 6 -4.98 6 -6 6 C-5 3 -5 3 -2.5625 1.25 C-1.716875 0.8375 -0.87125 0.425 0 0 Z " fill="#D7F4FA" transform="translate(129,219)"/>
<path d="M0 0 C3.3 1.65 6.6 3.3 10 5 C10 5.33 10 5.66 10 6 C8.35 6 6.7 6 5 6 C4.67 5.01 4.34 4.02 4 3 C1.98491642 2.26676204 1.98491642 2.26676204 0 2 C0 1.34 0 0.68 0 0 Z " fill="#D1F0FB" transform="translate(70,203)"/>
<path d="M0 0 C-2.68841859 2.25245881 -4.64641875 3.88213958 -8 5 C-7.625 3.0625 -7.625 3.0625 -7 1 C-4.53721199 -0.231394 -2.7204945 -0.07159196 0 0 Z " fill="#DBF2FA" transform="translate(184,164)"/>
<path d="M0 0 C0.66 0 1.32 0 2 0 C2 2.64 2 5.28 2 8 C0.68 7.34 -0.64 6.68 -2 6 C-1.34 4.02 -0.68 2.04 0 0 Z " fill="#3486B3" transform="translate(113,116)"/>
<path d="M0 0 C1.093125 0.350625 2.18625 0.70125 3.3125 1.0625 C6.90920373 2.33039454 6.90920373 2.33039454 10 1 C9.34 2.32 8.68 3.64 8 5 C4.5625 4.1875 4.5625 4.1875 1 3 C0.67 2.01 0.34 1.02 0 0 Z " fill="#E1F6FC" transform="translate(138,44)"/>
<path d="M0 0 C3.94120709 0.56302958 6.7508723 1.6791945 10 4 C10 4.66 10 5.32 10 6 C6.40992874 4.66654496 3.20429093 3.1056769 0 1 C0 0.67 0 0.34 0 0 Z " fill="#D3EDF4" transform="translate(132,16)"/>
<path d="M0 0 C2.35981813 0.93578995 4.69631264 1.93347808 7 3 C7 3.99 7 4.98 7 6 C3.54074837 4.7508258 0.85306797 3.32472205 -2 1 C-1.34 0.67 -0.68 0.34 0 0 Z " fill="#DCF1F6" transform="translate(123,9)"/>
<path d="M0 0 C-0.33 1.32 -0.66 2.64 -1 4 C-2.65 4.33 -4.3 4.66 -6 5 C-6 4.01 -6 3.02 -6 2 C-2.25 0 -2.25 0 0 0 Z " fill="#D5F1F9" transform="translate(122,160)"/>
<path d="M0 0 C3.45925163 1.2491742 6.14693203 2.67527795 9 5 C5.26512223 4.5020163 3.18762365 4.12508244 0 2 C0 1.34 0 0.68 0 0 Z " fill="#4990BB" transform="translate(79,185)"/>
<path d="M0 0 C-2.17424117 2.50037734 -3.73045798 3.43628586 -7 4 C-7 3.01 -7 2.02 -7 1 C-4.53721199 -0.231394 -2.7204945 -0.07159196 0 0 Z " fill="#3F86B8" transform="translate(144,146)"/>
<path d="M0 0 C0.99 0.33 1.98 0.66 3 1 C0.31158141 3.25245881 -1.64641875 4.88213958 -5 6 C-5 5.34 -5 4.68 -5 4 C-2.6875 1.8125 -2.6875 1.8125 0 0 Z " fill="#DDF7FD" transform="translate(101,75)"/>
<path d="M0 0 C2.31 0 4.62 0 7 0 C7 0.66 7 1.32 7 2 C2.25 3.125 2.25 3.125 0 2 C0 1.34 0 0.68 0 0 Z " fill="#F9FBE8" transform="translate(165,35)"/>
<path d="M0 0 C1.65 0 3.3 0 5 0 C5.33 0.99 5.66 1.98 6 3 C3 4 3 4 0 3 C0 2.01 0 1.02 0 0 Z " fill="#0F7AB3" transform="translate(131,21)"/>
<path d="M0 0 C-5.75 4 -5.75 4 -8 4 C-7.1875 2.0625 -7.1875 2.0625 -6 0 C-3 -1 -3 -1 0 0 Z " fill="#DDF4FA" transform="translate(89,21)"/>
<path d="M0 0 C1.67542976 0.28604898 3.34385343 0.61781233 5 1 C2.61426621 2.89213369 0.92824652 4.02391783 -2 5 C-1.125 1.125 -1.125 1.125 0 0 Z " fill="#D4EFF5" transform="translate(106,7)"/>
</svg>
